<?xml version="1.0" encoding="UTF-8"?>
<svg width="115px" height="92px" viewBox="0 0 115 92" version="1.1" xmlns="http://www.w3.org/2000/svg" xmlns:xlink="http://www.w3.org/1999/xlink">
    <title>Delivery Time</title>
    <g id="Food-Delivery-App---High-Fidelity-Design" stroke="none" stroke-width="1" fill="none" fill-rule="evenodd">
        <g id="Basket-Screen" transform="translate(-38.000000, -444.000000)">
            <g id="Category" transform="translate(20.000000, 444.462386)">
                <g id="Illustration/Delivery" transform="translate(18.666667, 0.000000)">
                    <path d="M79.5472904,0.225969036 C59.9756426,-2.98485205 61.9710655,29.1554111 35.9294954,24.7563709 C9.29338723,20.2568991 1.3323577,51.9980268 9.29338723,69.5306376 C17.8917715,88.4668974 72.9491086,98.6466605 92.6461905,84.687402 C114.815223,68.97628 116.269115,6.25035741 79.5472904,0.225969036 Z" id="Blob" fill="#FE3C5B"></path>
                    <path d="M36.0809905,34.7306471 C37.5791671,37.9973082 38.978866,40.3878001 40.2800871,41.902123 C43.0499041,45.1255546 47.0050695,47.8033738 48.4903199,50.3173935 C50.8431079,54.2998569 51.4977034,57.2650944 50.4541066,59.2131061 C49.2111739,54.9200164 47.6989289,51.7250757 45.9173716,49.6282842 C43.8777619,47.2277795 39.8717001,44.5653953 38.5326199,42.593978 C36.9245062,40.2264849 35.7050787,37.9086928 34.8743374,35.6406017 L36.0809905,34.7306471 Z" id="Path-166" fill="#FFFFFF"></path>
                    <path d="M63.825891,86.884597 C54.611577,87.3149722 45.4038246,87.885829 36.2069131,88.5969025 C35.0274403,88.7133742 34.1548939,88.730832 34.2014551,88.855928 C33.3723159,88.8033498 31.8734394,88.352239 31.0021265,88.7133742 C31.658487,88.8655857 32.8991956,89.4457524 32.9729011,90.1154876 C24.29384,90.6160516 15.5666282,90.278289 6.95221647,89.108429 C15.3867435,89.6833345 23.846998,89.8806572 32.2991566,89.6996082 C31.2099512,88.9685458 29.8091906,88.719742 28.5348495,89.0309903 C30.1774274,88.2368253 32.0810601,87.9946478 33.8701628,88.352239 C32.5050372,86.8251138 31.6003199,84.891646 31.3025788,82.8650652 C32.6662858,83.7976223 33.7569199,85.1245691 34.4077503,86.6430482 C34.3455127,83.7888244 36.3653134,81.0155112 39.1009569,80.1989809 C37.3539403,82.423954 36.430481,85.2810259 36.5447429,88.1075991 C45.2787092,87.3614572 54.0318362,86.8396124 62.7925879,86.5427525 C62.3601459,86.1997994 62.0660767,85.6871469 61.9883508,85.1407207 C62.4165892,84.7751539 63.049383,84.6675696 63.5743721,84.8710735 C63.9597836,81.8196027 66.0826378,79.0485281 68.928546,77.8819853 C67.343414,79.6722674 66.2422185,81.8869928 65.771524,84.2313902 C66.2604576,83.9352121 66.8794964,83.8634559 67.4232181,84.0399335 C67.2682498,84.7010324 66.8804209,85.3051014 66.3438131,85.7211772 C77.1913216,83.2418476 88.578306,87.4657956 99.5971559,85.9164534 C94.0348093,87.7154074 88.024583,86.3207397 82.2099561,85.7157192 C73.6981807,84.8710735 65.5232853,86.5427525 63.825891,86.884597 Z" id="Path" fill="#FFFFFF" fill-rule="nonzero"></path>
                    <path d="M86.7785943,20.9037179 C86.8739891,19.9958374 87.6556545,19.3153209 88.4572643,18.8785499 C89.907104,18.0885796 91.614234,17.7803072 93.2487994,18.0132978 C93.9889438,18.1187979 94.5532892,17.4135653 95.0821237,16.8850976 C96.4546806,15.5134923 98.5523334,15.0127331 100.466706,15.3295815 C102.381078,15.6464298 104.115745,16.7039345 105.512879,18.0504966 C106.910014,19.3970589 108.00058,21.0264263 109.009865,22.6837003 C109.221578,23.0313397 109.712646,23.0405722 110.119191,23.0206342 C110.996439,22.9776108 111.919603,23.0018544 112.685952,23.430951 C113.452301,23.8600477 113.990898,24.8125345 113.680796,25.6342718 C113.535571,26.0191047 113.22712,26.3258618 112.874855,26.5382201 C112.172172,26.9618234 111.320149,27.0347199 110.502041,27.0971905 C105.046221,27.5137954 99.5904009,27.9304004 94.1345808,28.3470055 C92.6418003,28.4609939 91.1255504,28.5736349 89.6595494,28.2699439 C88.1935484,27.966253 86.7582737,27.1849546 86.0077732,25.8895256 C85.2572726,24.5940967 85.3828044,22.7487826 86.5341176,21.7917742 C86.7773637,21.5895802 86.7455405,21.2182947 86.7785945,20.903718" id="Shape" fill="#FFFFFF" fill-rule="nonzero"></path>
                    <path d="M68.5166657,29.2627635 C69.7075486,30.6306572 75.8540605,30.1516507 76.0533619,32.6541871 C75.349194,32.84733 74.6450262,33.0404728 73.9408584,33.2336157 C72.7959758,33.5476401 71.6381161,33.8668988 70.6023986,34.4471197 C70.116366,34.7194008 69.5385263,35.0559952 69.0441888,34.7991 C67.1327477,33.8057696 64.909999,33.4970924 62.7656423,33.7021445 C60.6212856,33.9071966 58.5471834,34.6058803 56.6012044,35.5297189 C55.5852828,36.0120199 54.4404449,36.5690037 53.3888985,36.1703043 C49.5497929,34.7146868 45.1701046,34.7401496 41.3481833,36.2403071 C40.6706033,36.5062667 39.9151644,36.2111016 39.2483029,35.9193058 C38.5270372,35.6037045 37.8057716,35.2881031 37.0845058,34.9725019 C38.0147343,33.9085559 41.9914309,32.4284398 42.802182,31.398747 C42.9446588,31.2177947 48.2546759,27.5355167 54.0775241,29.1992487 C54.3384308,29.0768228 63.3944511,27.5355167 68.5166657,29.2627635 Z" id="Path" fill="#FFFFFF" fill-rule="nonzero"></path>
                    <path d="M44.7159957,46.6523387 C41.339624,43.4432201 37.4415993,40.194745 36.532355,35.6262001 C38.2011318,39.912077 41.906804,42.9974733 45.1568502,46.2518174 C48.4068964,49.5061617 51.4853793,53.5654637 51.2845103,58.1603749 C56.5985663,57.0003094 62.1053978,56.7284017 67.5078862,57.3593225 C68.0616654,54.8652836 69.673688,52.7655574 70.9385839,50.5458864 C74.0742693,45.0433103 75.1343542,38.6374238 76.1418983,32.3847667 C76.3966262,30.8039656 74.4611098,29.8669239 72.9094954,29.4715613 C71.3597817,29.0766835 69.8100682,28.6818055 68.2603546,28.2869274 C65.3478974,27.5448125 62.3304413,26.797452 59.3680678,27.3048813 C57.3648595,27.6480135 55.386631,28.5608173 53.3831892,28.2190507 C50.1941992,27.6750408 46.8108365,28.3639477 44.0884667,30.111605 C42.7198534,30.9902022 41.5035833,32.1290919 40.0096428,32.7718805 C36.8654343,34.1247192 34.0959673,36.3368233 32.0816995,39.1043031 C31.0293391,33.6607849 32.8023716,28.0899336 34.8752657,22.9477101 C37.1924982,17.1993597 40.1012866,11.3832505 45.0869018,7.7013028 C52.3965322,2.30303531 61.9267522,3.35376109 69.5305512,8.32912324 C77.1343502,13.3044853 81.7805652,21.5090064 83.2820061,30.4710186 C83.4566413,31.5134019 83.5804407,32.6415661 83.0896943,33.577636 C82.5989479,34.5137058 82.4138083,35.0553543 81.6136859,34.3648015 C80.9315867,33.7761093 80.2057274,33.1655675 79.3207999,32.9960948 C78.4358725,32.826622 77.3622673,33.2864946 77.1906945,34.1710174 C75.9341828,40.6488173 74.6146859,47.2910427 71.1237025,52.8904843 C70.2145813,54.3486897 69.1559955,55.7409113 68.5778494,57.3591236 C68.1354658,58.597341 67.9928611,59.9191892 67.8534593,61.2266495 C67.5629939,63.950947 67.2725284,66.6752445 66.982063,69.3995419 C66.8596278,70.5478702 66.6889294,71.7983608 65.8524255,72.5945449 C65.0536478,73.3548208 63.8648353,73.4915105 62.7664057,73.5890679 C59.1991539,73.9058937 55.6319022,74.2227198 52.0646505,74.539546 C51.4266668,74.5962086 50.7033019,74.6251837 50.2373602,74.1857157 C49.8783897,73.8471405 49.7788838,73.3228326 49.7082775,72.8344602 C49.207191,69.3685194 49.2073359,65.8305132 49.7087064,62.3646135 C50.4280544,57.3918677 48.2027381,52.304252 44.6975163,48.7043796 C42.8708247,46.8283621 40.7167379,45.2947399 38.8930428,43.4158094 C37.0693478,41.5368789 35.5429987,39.1753623 35.4335684,36.5592069 C36.6745038,39.9976185 38.9612566,43.0507143 41.9118944,45.2085677 C46.3213251,48.4332621 49.4630068,53.3462091 50.5403351,58.7016827 C51.3872428,54.1211723 48.0923674,49.8614572 44.7159957,46.6523387 Z" id="Path" fill="#FFFFFF"></path>
                    <path d="M35.5916576,57.1188533 C35.0565892,56.8255102 34.8595321,56.1676128 34.7188498,55.5738479 C34.028616,52.6606436 33.5240193,49.7034692 33.2091364,46.7262171 C33.1891188,46.5369487 33.1799404,46.3183278 33.3176756,46.1869801 C33.6127354,46.53487 33.664821,47.0209257 33.710097,47.4748392 C34.0356514,50.7386785 34.6664772,53.9720018 35.5916576,57.1188533 Z" id="Path" fill="#00160A"></path>
                    <path d="M78.0230445,47.1951733 C78.5080571,45.5735996 78.8655869,43.9139135 79.0912489,42.2364704 C79.1217999,42.0093713 79.2072854,41.7236647 79.4357542,41.7060756 C79.5691601,41.8226617 79.55631,42.0302024 79.5311097,42.2055716 C79.316184,43.701239 79.0094252,45.1837043 78.6131354,46.6418431 C78.5327143,46.9377504 78.307628,47.3093708 78.0230445,47.1951735 L78.0230445,47.1951733 Z" id="Path" fill="#00160A"></path>
                    <path d="M65.6649516,86.1774922 C65.9295853,85.459153 66.4141429,84.8235285 67.0367181,84.37806 C66.3751405,84.4185603 65.7316186,84.7066916 65.2607897,85.1732164 C65.5202124,83.1393848 66.1707234,81.1561525 67.1663139,79.363788 C65.3245895,80.8755237 64.135891,83.1571734 63.9523681,85.5328024 C63.5136128,85.2771189 62.9663562,85.2153642 62.4816553,85.3668411 C62.9297339,85.8727599 63.3778124,86.3786785 63.825891,86.884597 C54.611577,87.3149722 45.4038246,87.885829 36.2069131,88.5969025 C35.7287445,86.0553036 36.3504921,83.3259629 37.8823147,81.2422428 C35.8609433,82.6677983 34.6130996,85.1285334 34.6574594,87.6016252 C33.7562034,86.3994455 33.3071783,84.6820919 31.9536915,83.9950862 C32.193203,85.1732164 32.4697814,85.4381243 34.0596174,88.4814516 C34.1246108,88.6058644 34.1548939,88.730832 34.2014551,88.855928 C33.3723159,88.8033498 31.8734394,88.352239 31.0021265,88.7133742 C31.658487,88.8655857 32.8991956,89.4457524 32.9729011,90.1154876 C24.29384,90.6160516 15.5666282,90.278289 6.95221647,89.108429 C15.3867435,89.6833345 23.846998,89.8806572 32.2991566,89.6996082 C31.2099512,88.9685458 29.8091906,88.719742 28.5348495,89.0309903 C30.1774274,88.2368253 32.0810601,87.9946478 33.8701628,88.352239 C32.5050372,86.8251138 31.6003199,84.891646 31.3025788,82.8650652 C32.6662858,83.7976223 33.7569199,85.1245691 34.4077503,86.6430482 C34.3455127,83.7888244 36.3653134,81.0155112 39.1009569,80.1989809 C37.3539403,82.423954 36.430481,85.2810259 36.5447429,88.1075991 C45.2787092,87.3614572 54.0318362,86.8396124 62.7925879,86.5427525 C62.3601459,86.1997994 62.0660767,85.6871469 61.9883508,85.1407207 C62.4165892,84.7751539 63.049383,84.6675696 63.5743721,84.8710735 C63.9597836,81.8196027 66.0826378,79.0485281 68.928546,77.8819853 C67.343414,79.6722674 66.2422185,81.8869928 65.771524,84.2313902 C66.2604576,83.9352121 66.8794964,83.8634559 67.4232181,84.0399335 C67.2682498,84.7010324 66.8804209,85.3051014 66.3438131,85.7211772 C77.1913216,83.2418476 88.578306,87.4657956 99.5971559,85.9164534 C94.0348093,87.7154074 88.024583,86.3207397 82.2099561,85.7157192 C76.7065661,85.1430834 71.1278345,85.2987864 65.6649516,86.1774922 Z" id="Path" fill="#00160A"></path>
                    <path d="M70.5494111,46.5149103 C70.6823413,46.7105371 70.6406856,46.9719889 70.5870444,47.2023428 C70.2649653,48.5854573 69.6972173,49.9109942 68.9182883,51.0984327 C68.7015881,50.8282841 68.9008023,50.4370748 69.0832087,50.1426819 C69.5685772,49.3593284 69.9252081,48.4964108 70.134493,47.5989561 C70.2233043,47.2181157 70.2948788,46.8117943 70.549411,46.5149103 L70.5494111,46.5149103 Z" id="Path" fill="#00160A"></path>
                    <path d="M68.4729435,49.026049 C68.2725606,48.8531268 68.3622549,48.531322 68.4582805,48.2846756 C68.7667243,47.4924246 68.9740468,46.6608674 69.0736313,45.8165438 C69.1066474,45.5366184 69.1591519,45.2071513 69.4115884,45.0817556 C69.530498,45.1891528 69.5125869,45.3772886 69.4850541,45.5351353 C69.2758649,46.7344248 69.0581879,47.9585544 68.4729435,49.026049 Z" id="Path" fill="#00160A"></path>
                    <path d="M51.7956087,53.496191 C51.8543217,53.4436394 51.9457253,53.4976076 52.0001417,53.5545965 C52.2442072,53.8102018 52.3896698,54.1576826 52.4004833,54.5109319 C52.0740058,54.3358959 51.8347025,54.0065338 51.7691091,53.6419482 C51.7599555,53.5910697 51.7570894,53.5306682 51.7956086,53.496191 L51.7956087,53.496191 Z" id="Path" fill="#00160A"></path>
                    <path d="M77.4906894,42.7857099 C77.4037092,44.3257282 77.0520542,45.8504533 76.4557619,47.2730062 C76.4403436,47.309789 76.4237932,47.3478666 76.3935827,47.3739054 C76.3050329,47.4502279 76.1557522,47.3680638 76.1240286,47.255548 C76.0923051,47.1430322 76.1374486,47.0248111 76.1804084,46.9160883 C76.6010712,45.851471 76.8801345,44.7310034 77.0079441,43.5934482 C77.0459428,43.2552452 77.1526643,42.825262 77.4906894,42.7857099 L77.4906894,42.7857099 Z" id="Path" fill="#00160A"></path>
                    <path d="M51.2266841,50.840404 C50.6537135,50.0657312 50.1929021,49.208238 49.8630529,48.3029133 C49.8206486,48.1865281 49.8464952,47.9901485 49.9660933,48.0223958 C50.0111214,48.0345366 50.0378613,48.0795153 50.0599036,48.1206135 C50.5574544,49.0483089 51.0550053,49.976004 51.5525563,50.9036992 C51.5272247,51.0432213 51.3110074,50.9544116 51.226684,50.840404 L51.2266841,50.840404 Z" id="Path" fill="#00160A"></path>
                    <path d="M34.9119773,34.7417264 C34.6487629,34.6051891 34.6381827,34.2382738 34.6697808,33.943442 C35.2587272,28.448238 37.9340548,23.2022412 42.036239,19.4987012 C42.1305047,20.1958809 41.5923762,20.7996907 41.1151758,21.3166291 C37.716304,24.9985359 35.5129728,29.7670333 34.9119773,34.7417264 Z" id="Path" fill="#00160A"></path>
                    <path d="M69.3966792,34.7363142 C69.4716974,32.9320246 69.1700467,30.9462664 68.5166657,29.2627635 C69.7075486,30.6306572 69.7569089,32.6209503 69.7442851,34.4345588 C71.6439495,33.3047171 73.8433001,32.6840778 76.0533619,32.6541871 C75.349194,32.84733 74.6450262,33.0404728 73.9408584,33.2336157 C72.7959758,33.5476401 71.6381161,33.8668988 70.6023986,34.4471197 C70.116366,34.7194008 69.5385263,35.0559952 69.0441888,34.7991 C67.1327477,33.8057696 64.909999,33.4970924 62.7656423,33.7021445 C60.6212856,33.9071966 58.5471834,34.772547 56.6012044,35.6963856 C55.5852828,36.1786865 54.4404449,36.7356703 53.3888985,36.336971 C49.5497929,34.8813535 45.1701046,34.7401496 41.3481833,36.2403071 C40.6706033,36.5062667 39.9151644,36.2111016 39.2483029,35.9193058 C38.5270372,35.6037045 37.8057716,35.2881031 37.0845058,34.9725019 C37.643494,35.0898146 38.6170082,35.3981339 40.0050483,35.8974598 C40.4049065,35.9457779 40.6677583,35.8931558 40.7936038,35.7395935 C40.9823719,35.5092502 41.041978,35.2030703 41.1100117,34.9131343 C41.4094041,33.6372232 41.9914309,32.4284398 42.802182,31.398747 C42.9446588,31.2177947 43.2496572,31.048877 43.3631884,31.2492618 C42.2411603,32.5497323 41.4930136,34.1691659 41.2301002,35.8665307 C45.3195464,34.3241465 49.9860765,34.3728436 54.0424449,36.0002324 C54.4300069,33.7560003 54.4419147,31.4473593 54.0775241,29.1992487 C54.3384308,29.0768228 54.5299359,29.4655697 54.5556096,29.752626 C54.7426061,31.8434307 54.7090233,33.9538949 54.4555982,36.0376913 C56.8015608,34.9044589 59.2345218,33.880457 61.8068693,33.4671959 C64.3792167,33.0539347 67.1249744,33.4607305 69.3966792,34.7363142 Z" id="Path" fill="#00160A"></path>
                    <path d="M39.579708,30.2562718 C40.8061121,26.7465568 42.7177981,23.477748 45.1754346,20.6880904 C45.3556305,20.4835503 45.5698393,20.2663175 45.8422761,20.2570756 C46.114713,20.2478337 46.3705006,20.6039073 46.1782648,20.7971756 C43.3507383,23.6398888 41.1453303,27.0982011 39.7604853,30.8610155 C39.5112651,30.8675205 39.4974685,30.4916244 39.5797077,30.2562718 L39.579708,30.2562718 Z" id="Path" fill="#00160A"></path>
                    <path d="M35.7051595,46.060772 C35.7409725,46.1044787 35.7451122,46.1652248 35.7479549,46.2216586 C35.8656992,48.5591403 36.4596932,50.8431509 37.0506046,53.1077718 C37.0758303,53.2044474 36.9347402,53.2743392 36.8461532,53.228135 C36.757566,53.1819307 36.7187729,53.0779902 36.6879012,52.9829668 C35.9986188,50.8613408 35.5586855,48.6588222 35.3800438,46.4352003 C35.3711373,46.3243379 35.3648726,46.2047666 35.4239031,46.1105053 C35.4829336,46.0162439 35.6346687,45.9747437 35.7051594,46.060772 L35.7051595,46.060772 Z" id="Path" fill="#00160A"></path>
                    <path d="M54.1701838,27.0798009 C53.9241189,27.0900929 53.8438074,26.7555194 53.8473739,26.5092652 C53.8846614,23.9348604 53.9219487,21.3604557 53.9592359,18.7860509 C53.963353,18.5017952 54.0402873,18.1315472 54.3228491,18.1002877 C54.5740504,18.3945394 54.5687041,18.8223494 54.5500538,19.2087924 C54.4234303,21.8324619 54.2968071,24.4561314 54.1701838,27.0798009 Z" id="Path" fill="#00160A"></path>
                    <path d="M77.8743541,31.0197165 C78.419825,30.1340449 78.3830429,29.0195668 78.2911124,27.9834677 C78.1300855,26.1686217 77.8538723,24.3640038 77.464687,22.5840795 C77.4273806,22.4134598 77.4050536,22.198476 77.5487256,22.0991724 C77.6674574,22.0171071 77.8409882,22.0738206 77.9339944,22.1841918 C78.0270007,22.294563 78.0595438,22.4422233 78.0880916,22.5837047 C78.5345795,24.7964717 78.7378942,27.0582176 78.6931992,29.3151384 C78.6765796,30.1543609 78.5390904,31.1389184 77.8024203,31.5412713 C77.6608077,31.4121851 77.7738686,31.182873 77.8743538,31.0197164 L77.8743541,31.0197165 Z" id="Path" fill="#00160A"></path>
                    <path d="M69.2338516,25.0553176 C69.4190642,25.8782328 69.3404967,26.7584152 69.0124623,27.5355167 C68.7872118,27.2935225 68.850569,26.9139564 68.8895661,26.5856604 C69.0410518,25.3103945 68.5945083,24.0403996 68.0453695,22.8794958 C67.4962308,21.7185921 66.8327141,20.5976522 66.5026373,19.3565638 C66.4529849,19.1698705 66.460609,18.8994445 66.6509514,18.8664368 C66.8117674,18.8385494 66.9213952,19.0204644 66.9813219,19.1722811 C67.5984059,20.7355855 68.2154901,22.2988898 68.8325741,23.8621942 C68.9867983,24.2529016 69.1416199,24.6455241 69.2338516,25.0553176 Z" id="Path" fill="#00160A"></path>
                    <path d="M85.945261,20.4037179 C86.0406557,19.4958374 86.8223212,18.8153209 87.6239309,18.3785499 C89.0737707,17.5885796 90.7809007,17.2803072 92.4154661,17.5132978 C93.1556105,17.6187979 93.7199559,16.9135653 94.2487903,16.3850976 C95.6213472,15.0134923 97.7190001,14.5127331 99.6333722,14.8295815 C101.547744,15.1464298 103.282412,16.2039345 104.679546,17.5504966 C106.07668,18.8970589 107.167246,20.5264263 108.176532,22.1837003 C108.388245,22.5313397 108.879313,22.5405722 109.285857,22.5206342 C110.163105,22.4776108 111.086269,22.5018544 111.852619,22.930951 C112.618968,23.3600477 113.157564,24.3125345 112.847463,25.1342718 C112.702237,25.5191047 112.393787,25.8258618 112.041522,26.0382201 C111.338839,26.4618234 110.486815,26.5347199 109.668708,26.5971905 C104.212888,27.0137954 98.7570675,27.4304004 93.3012475,27.8470055 C91.808467,27.9609939 90.2922171,28.0736349 88.8262161,27.7699439 C87.3602151,27.466253 85.9249404,26.6849546 85.1744399,25.3895256 C84.4239393,24.0940967 84.5494711,22.2487826 85.7007842,21.2917742 C85.9440304,21.0895802 85.9122071,20.7182947 85.9452611,20.403718 M88.0120828,18.660175 C87.3589547,18.9714273 86.7070731,19.4296762 86.4919465,20.1204546 C86.4153143,20.3665228 86.3994872,20.6279211 86.3283305,20.8756283 C86.143791,21.5180392 85.6123394,22.000389 85.3318954,22.6070997 C84.747254,23.8719087 85.4135127,25.4448276 86.5281137,26.2810166 C87.6427147,27.1172057 89.0862486,27.3657618 90.4762012,27.4636344 C95.478852,27.8158924 100.453162,26.5465814 105.466611,26.4203683 C107.435781,26.3707946 109.467776,26.4880801 111.309902,25.7904691 C112.007157,25.5264192 112.77339,24.8583057 112.474064,24.1754503 C112.398446,24.002942 112.262255,23.8645543 112.119448,23.7417395 C111.237543,22.9832922 109.974465,22.6931185 108.84997,22.9906246 C108.276485,23.1423506 107.797554,22.5606146 107.483528,22.0573323 C106.117237,19.8676072 104.570269,17.6849936 102.363,16.3472305 C100.155731,15.0094674 97.1292301,14.7169302 95.0760059,16.2808731 C94.1533397,16.9836689 93.2951311,18.0756419 92.1417579,17.9533108 C90.7352843,17.8041345 89.2888736,18.0517124 88.0120828,18.660175 Z" id="Shape" fill="#00160A"></path>
                    <path d="M11.6089421,12.244209 C11.4248599,12.8188476 11.6569236,13.4372736 11.9085036,13.9857288 C12.2008884,14.6231404 12.6814563,15.3421685 13.381334,15.2979689 C15.5425927,15.1614785 17.7038514,15.024988 19.8651101,14.8884974 C20.1782447,14.868722 20.6090245,14.950355 20.6108986,15.2641079 C17.9006896,15.4810357 15.1904809,15.697963 12.4802721,15.9148904 C10.6572257,16.0608085 8.75096172,16.2337001 7.21164165,17.2212648 C5.67232158,18.2088294 4.66893307,20.2910983 5.49926927,21.9206173 C5.81388195,22.5380386 6.43134141,23.0542025 7.12399188,23.0335746 C8.99074197,22.9779807 10.8574921,22.9223867 12.7242422,22.8667928 C13.159161,22.8538404 13.7543882,22.9911297 13.7349144,23.4258053 C10.7682956,23.2485667 7.78415382,23.3659005 4.84060974,23.7755214 C3.78382429,23.9225824 2.69674654,24.1209177 1.81052448,24.7150834 C0.924302424,25.3092492 0.287514774,26.4001802 0.535663074,27.4378916 C0.706935662,28.1541228 1.26798447,28.7293876 1.91678291,29.077786 C2.56558135,29.4261843 3.30000058,29.5771465 4.02625836,29.699091 C11.7280436,30.9922821 19.6291475,29.4797645 27.4182874,30.0446859 C28.2897772,30.1078922 29.2333025,30.2302363 29.8540267,30.8452087 C23.1340591,29.5553833 16.2039423,30.9948113 9.36895649,30.6714198 C7.84759584,30.599438 6.33188939,30.4399788 4.81718907,30.2805976 C3.57740603,30.150144 2.27844717,29.9984427 1.25568263,29.2856787 C0.763586296,28.9427371 0.351077024,28.4689251 0.145223322,27.9055496 C-0.364751881,26.5098614 0.535192814,24.915389 1.80331479,24.1408653 C3.07143677,23.3663416 4.61024787,23.2129669 6.09008226,23.0783919 C4.88061526,22.2507832 4.52102427,20.5075435 5.04429362,19.1386257 C5.56756289,17.7697078 6.81217847,16.7716077 8.17628183,16.2359129 C9.54038518,15.7002183 11.0265932,15.5708256 12.49049,15.5018853 C12.05879,14.9364294 11.6206444,14.3593512 11.3793337,13.690117 C11.138023,13.0208828 11.1202358,12.2326189 11.5052756,11.6344135 C11.7730444,11.2184028 12.2024743,10.9368133 12.6309928,10.6895542 C16.7301568,8.32429929 21.6852657,8.04967824 26.4164197,8.16697728 C27.7020122,8.19885092 29.0295443,8.26550154 30.1857177,8.8285534 C31.9793073,9.70202428 33.0695381,11.7216149 33.0805709,13.716558 C33.0912443,15.711501 32.1259261,17.6364296 30.707215,19.0389895 C30.4793935,18.723272 30.764211,18.3035672 31.0138144,18.0047725 C32.1695992,16.6212086 32.8262595,14.7765505 32.5803965,12.9905945 C32.3345335,11.2046385 31.1091544,9.53412844 29.4009782,8.95774163 C28.6871825,8.71688649 27.9251126,8.66600778 27.1727522,8.62767274 C22.2805434,8.37839969 17.153355,8.63443221 12.8686845,11.0087623 C12.341233,11.3010471 11.7929079,11.6699338 11.6089421,12.244209 Z" id="Path" fill="#00160A"></path>
                    <path d="M44.7159957,46.6523387 C41.339624,43.4432201 37.4415993,40.194745 36.532355,35.6262001 C38.2011318,39.912077 41.906804,42.9974733 45.1568502,46.2518174 C48.4068964,49.5061617 51.4853793,53.5654637 51.2845103,58.1603749 C56.5985663,57.0003094 62.1053978,56.7284017 67.5078862,57.3593225 C68.0616654,54.8652836 69.673688,52.7655574 70.9385839,50.5458864 C74.0742693,45.0433103 75.1343542,38.6374238 76.1418983,32.3847667 C76.3966262,30.8039656 74.4611098,29.8669239 72.9094954,29.4715613 C71.3597817,29.0766835 69.8100682,28.6818055 68.2603546,28.2869274 C65.3478974,27.5448125 62.3304413,26.797452 59.3680678,27.3048813 C57.3648595,27.6480135 55.386631,28.5608173 53.3831892,28.2190507 C50.1941992,27.6750408 46.8108365,28.3639477 44.0884667,30.111605 C42.7198534,30.9902022 41.5161872,32.184124 40.0096428,32.7718805 C36.7477234,34.044471 34.8743374,35.5857799 32.0816995,39.1043031 C31.0293391,33.6607849 32.8023716,28.0899336 34.8752657,22.9477101 C37.1924982,17.1993597 40.1012866,11.3832505 45.0869018,7.7013028 C52.3965322,2.30303531 63.0934188,2.85376109 70.6972178,7.82912324 C78.3010169,12.8044853 82.9472318,21.5090064 84.4486728,30.4710186 C84.6233079,31.5134019 84.7471074,32.6415661 84.256361,33.577636 C83.7656145,34.5137058 82.4138083,35.0553543 81.6136859,34.3648015 C80.9315867,33.7761093 80.2057274,33.1655675 79.3207999,32.9960948 C78.4358725,32.826622 77.3622673,33.2864946 77.1906945,34.1710174 C75.9341828,40.6488173 74.6146859,47.2910427 71.1237025,52.8904843 C70.2145813,54.3486897 69.1559955,55.7409113 68.5778494,57.3591236 C68.1354658,58.597341 67.9928611,59.9191892 67.8534593,61.2266495 C67.5629939,63.950947 67.2725284,66.6752445 66.982063,69.3995419 C66.8596278,70.5478702 66.6889294,71.7983608 65.8524255,72.5945449 C65.0536478,73.3548208 63.8648353,73.4915105 62.7664057,73.5890679 C59.1991539,73.9058937 55.6319022,74.2227198 52.0646505,74.539546 C51.4266668,74.5962086 50.7033019,74.6251837 50.2373602,74.1857157 C49.8783897,73.8471405 49.7788838,73.3228326 49.7082775,72.8344602 C49.207191,69.3685194 49.2073359,65.8305132 49.7087064,62.3646135 C50.4280544,57.3918677 48.2027381,52.304252 44.6975163,48.7043796 C42.8708247,46.8283621 40.7167379,45.2947399 38.8930428,43.4158094 C37.0693478,41.5368789 35.5429987,39.1753623 35.4335684,36.5592069 C36.6745038,39.9976185 38.9612566,43.0507143 41.9118944,45.2085677 C46.3213251,48.4332621 49.4630068,53.3462091 50.5403351,58.7016827 C51.3872428,54.1211723 48.0923674,49.8614572 44.7159957,46.6523387 Z M52.2890125,27.5870402 C53.7236561,27.7271623 55.2260979,28.0837842 56.5650033,27.5497722 C60.1705814,26.1117142 64.3530065,26.1877754 67.9039132,27.75598 C69.4193887,28.4252671 71.1253423,28.4621435 72.7572254,28.747746 C74.3891085,29.0333485 76.1118429,29.684517 76.9427782,31.1177504 C77.875903,32.7272447 80.6178058,32.282377 81.6803691,33.8095159 C82.1210214,34.4428309 83.2049848,34.201493 83.6221928,33.5524939 C84.0394007,32.9034948 83.9831112,32.0681168 83.8898479,31.302242 C83.1307271,25.0683721 80.8476573,18.9562283 76.9078618,14.0658898 C72.9680664,9.17555134 67.3161651,5.57937523 61.1154503,4.58512456 C54.9147355,3.59087381 48.2240108,5.34842973 43.6346564,9.63506291 C40.8568893,12.2296026 38.9302414,15.5955098 37.2373537,18.998708 C34.288905,24.9259503 31.8753123,31.3969189 32.3515664,37.9998523 C34.3304235,35.6052618 36.4801817,33.092808 39.4482199,32.1759173 C40.1569748,31.9569676 40.9335593,31.8163158 41.4714779,31.3055162 C44.3228658,28.5978785 48.3754959,27.2048063 52.2890125,27.5870402 Z M55.4604059,68.4413802 C55.4494556,70.0332719 55.6879337,71.6266326 56.16448,73.1455606 C56.2051603,73.2752237 56.2554663,73.4148183 56.3707857,73.4867129 C56.4828691,73.5565901 56.6257194,73.5433155 56.7568662,73.5276311 C58.3520264,73.3368588 59.9471866,73.1460865 61.5423468,72.9553141 C61.6008928,72.9483124 61.6661801,72.9375634 61.7012095,72.8901335 C61.7375345,72.840949 61.7264556,72.7727138 61.7137293,72.7129087 C61.4265776,71.3635096 61.1394262,70.0141105 60.8522749,68.6647115 C60.8361106,68.5887516 60.8178052,68.5086045 60.7641859,68.4524247 C60.6983758,68.3834721 60.5960552,68.3672474 60.5014923,68.3552768 C58.9345159,68.1569143 57.3517932,68.083074 55.773155,68.1346812 C55.6807852,68.1377009 55.5773303,68.1461853 55.5166988,68.2159356 C55.4647365,68.2757129 55.4609507,68.3621772 55.4604059,68.4413802 Z M60.5229128,62.8165963 C60.4704432,62.7448953 60.3709841,62.7306226 60.282481,62.7227926 C58.6741966,62.5805077 57.0513103,62.6038116 55.4477744,62.792217 C55.3549041,62.8031286 55.2564871,62.8169239 55.1845999,62.8767251 C55.0667835,62.9747336 55.0659025,63.1520289 55.0749175,63.3050162 C55.1284447,64.213385 55.1819718,65.1217539 55.2354989,66.0301228 C55.248573,66.2519931 55.3348664,66.5446786 55.5568422,66.5335369 C57.1294955,66.4545996 58.7089809,66.5122507 60.2716948,66.7056282 C60.4866618,66.7322293 60.5696539,66.4354559 60.5692878,66.2188496 C60.5674556,65.148393 60.5656273,64.0779366 60.5637991,63.0074803 C60.563686,62.941248 60.5620263,62.8700458 60.5229128,62.8165963 Z M50.5531013,68.988185 C50.4317613,69.0432364 50.3075479,69.1050274 50.2253093,69.2098648 C50.0943399,69.3768239 50.0999085,69.6095466 50.1116464,69.8214205 C50.1528355,70.5648918 50.1940245,71.3083631 50.2352135,72.0518343 C50.2560567,72.4280595 50.2781151,72.8104889 50.405655,73.1650497 C50.5331948,73.5196104 50.7836031,73.84877 51.1368281,73.9799638 C51.4278749,74.0880636 51.75005,74.0516415 52.0582081,74.0138511 C52.6413516,73.9422312 53.2244952,73.8706112 53.8076387,73.7989912 C54.0470876,73.7695828 54.295088,73.7372572 54.4999994,73.6099311 C53.9534093,71.9499275 53.5901877,70.2296178 53.4190624,68.4903395 C53.4070766,68.3685184 53.2433577,68.3399201 53.1211909,68.3476223 C52.2358298,68.403442 51.360963,68.6216614 50.5531013,68.988185 Z M66.2438153,66.9973611 C66.4165027,65.9302198 66.5891901,64.8630786 66.7618776,63.7959373 C66.7770067,63.7024456 66.7897653,63.597871 66.7348041,63.5207421 C66.6790189,63.4424569 66.5739395,63.4210382 66.4790281,63.4057943 C65.2148022,63.2027445 63.9473999,63.019472 62.6774414,62.8560666 C62.5821651,62.8438074 62.4664375,62.8400919 62.4115064,62.9188982 C62.3787151,62.965942 62.3798101,63.0278596 62.3821753,63.0851551 C62.4281015,64.1976519 62.4740277,65.3101486 62.5199539,66.4226453 C62.5241511,66.5243171 62.5336572,66.6377617 62.6097323,66.7053439 C62.6633656,66.7529896 62.7383365,66.7663269 62.8091591,66.7777632 C63.8752763,66.9499176 64.9413933,67.1220719 66.0075104,67.2942263 C66.1470748,67.3167629 66.2212318,67.136918 66.2438153,66.9973611 Z M55.1610738,60.7021308 C55.1381974,60.8250359 55.1303422,60.9823836 55.2398094,61.042765 C55.2923062,61.0717217 55.3561827,61.0667962 55.4158615,61.0610641 C57.0876287,60.9004914 58.7593959,60.7399188 60.4311633,60.579346 C60.5174018,60.5710628 60.6084068,60.5610149 60.677927,60.5093174 C60.7726143,60.4389044 60.801603,60.3121288 60.823994,60.1962742 C60.9602613,59.4911983 61.0965288,58.7861226 61.2327963,58.0810469 C61.2521637,57.9808355 61.2640411,57.8584828 61.1843794,57.7946751 C61.1287341,57.7501042 61.0499066,57.7538325 60.9788601,57.7597795 C59.3762604,57.8939268 57.7736606,58.0280742 56.1710609,58.1622215 C56.0402084,58.1731747 55.90354,58.1860162 55.7928122,58.2565974 C55.6053704,58.3760784 55.5487656,58.6192396 55.5080901,58.8377702 C55.3924181,59.4592238 55.276746,60.0806773 55.1610738,60.7021308 Z M62.6930479,58.3830646 C62.6304339,58.9943305 62.5678197,59.6055962 62.5052055,60.216862 C62.4948937,60.3175309 62.4859624,60.4254805 62.5350002,60.5140008 C62.6074355,60.6447571 62.7744061,60.6828103 62.9218092,60.7076374 C64.2632283,60.9335719 65.6046474,61.1595063 66.9460665,61.3854408 C67.0016892,61.3948093 67.0609526,61.4037922 67.1127911,61.381557 C67.2116486,61.3391538 67.2335903,61.2112223 67.2408493,61.1038997 C67.2942054,60.3150449 67.3061707,59.5233922 67.2766796,58.7332852 C67.2716,58.5971952 67.2644507,58.4574333 67.2090427,58.3330297 C67.0408232,57.955339 66.5405944,57.8926124 66.1272212,57.8842054 C65.1588926,57.8645116 64.190564,57.844818 63.2222353,57.8251243 C63.1218921,57.8230836 63.0166262,57.822139 62.9277211,57.8687096 C62.7533634,57.9600425 62.7131051,58.1872585 62.6930479,58.3830646 Z M76.9735341,32.3817295 C76.2813411,33.2841381 76.091485,34.4621429 75.9156667,35.5857799 C75.0263162,41.269534 73.8732573,47.0849705 70.7457623,51.9135086 C69.674357,53.5676508 68.3389949,55.2008335 68.1874707,57.165811 C68.7775596,55.1202394 70.4113896,53.5720742 71.532962,51.7624765 C72.3558737,50.434752 72.9050091,48.9580195 73.407972,47.4791468 C74.6220566,43.9093478 75.5994581,40.2590735 76.3316315,36.5602374 C76.5948598,35.2304452 76.854488,33.8316044 77.7107465,32.780672 C77.4200402,32.7777538 77.1349871,32.6234972 76.9735341,32.3817295 Z M52.9741907,66.745529 C53.0672292,66.7213109 53.166799,66.6930211 53.2272652,66.618278 C53.2920553,66.5381898 53.294931,66.4262115 53.2948143,66.3231976 C53.2935954,65.3423253 53.2923868,64.361453 53.2911781,63.3805807 C53.2910911,63.3099907 53.2889069,63.2332169 53.2442252,63.1785681 C53.1800261,63.1000485 53.0611448,63.1030062 52.9603214,63.1140298 C52.1820193,63.1991266 51.4111749,63.352321 50.6594779,63.5712897 C50.571259,63.5969878 50.4789276,63.6262303 50.4162781,63.6934465 C50.3443331,63.770636 50.3258377,63.8820423 50.3114197,63.9865718 C50.1653394,65.0456491 50.1069905,66.116814 50.1371667,67.1854924 C50.1396253,67.2725627 50.1524021,67.3759436 50.2297529,67.4159953 C50.2832987,67.4437209 50.3480052,67.4291308 50.4063586,67.4139414 C51.2623026,67.1911371 52.1182467,66.968333 52.9741907,66.745529 Z M65.5104584,72.0295799 C66.0773581,71.348174 66.0822963,70.3758508 66.0589809,69.4897664 C66.0544416,69.3172541 65.8515393,69.231784 65.6839832,69.1904797 C64.7882561,68.9696749 63.87832,68.8065288 62.9616761,68.7023866 C62.8814524,68.6932722 62.7934725,68.6863824 62.726622,68.7316587 C62.6245577,68.8007848 62.6254885,68.9488516 62.6387913,69.071402 C62.7629748,70.2154116 63.0005138,71.347087 63.3468009,72.444477 C63.3870048,72.5718839 63.4398821,72.7121075 63.5605822,72.7693819 C63.6256304,72.8002483 63.7004287,72.8012827 63.7723989,72.7992096 C64.4252155,72.7804058 65.0927703,72.5316355 65.5104584,72.0295799 Z M51.8142889,58.8355401 C51.5916244,58.8995768 51.3644592,58.9747226 51.1891536,59.126209 C51.0227398,59.2700118 50.9168852,59.4711807 50.8344882,59.6751011 C50.5727677,60.3228205 50.5132996,61.0315843 50.4566888,61.7278841 C50.4523631,61.7810894 50.4495487,61.83978 50.4820219,61.8821475 C50.5307118,61.9456727 50.6271548,61.9371978 50.7058227,61.9224491 C51.3842801,61.7952519 52.0627375,61.6680548 52.741195,61.5408577 C52.934394,61.5046367 53.1482054,61.4553988 53.257832,61.2922429 C53.3323848,61.1812866 53.3416519,61.0404208 53.3485684,60.9069234 C53.3900952,60.1053899 53.431622,59.3038564 53.4731489,58.502323 C52.9123435,58.5679144 52.3569223,58.6794825 51.8142889,58.8355401 Z M55.6230598,62.2678248 C57.1046774,62.1073946 58.6014986,62.0876713 60.0868288,62.2090066 C60.2552929,62.2227685 60.4403888,62.2339795 60.5768224,62.1342025 C60.7905437,61.9779032 60.7617128,61.6561459 60.7105924,61.3963517 C60.6972465,61.3285276 60.6819625,61.2568144 60.6344813,61.2065775 C60.5587989,61.1265029 60.4326401,61.1298575 60.3228448,61.1390649 C58.8400375,61.2634127 57.3572302,61.3877605 55.8744228,61.5121083 C55.6698626,61.5292627 55.4515399,61.5517631 55.2927154,61.6818167 C55.1338908,61.8118704 55.0824106,62.0907475 55.2460695,62.2146625 C55.3498656,62.2932523 55.4936244,62.28184 55.6230598,62.2678248 Z M66.9119992,62.1499544 C66.7338187,61.9678003 66.4656218,61.9144 66.2147405,61.8698241 C65.1050959,61.6726656 63.9954513,61.4755071 62.8858067,61.2783486 C62.7410139,61.2526222 62.5631159,61.2391269 62.4760367,61.3576343 C62.4380637,61.4093122 62.4274708,61.4755259 62.4179903,61.5389504 C62.3708042,61.8546242 62.4097134,62.2942101 62.7261591,62.3359067 C63.9875258,62.5021118 65.2488925,62.6683168 66.5102592,62.8345219 C66.6353203,62.8510007 66.7696914,62.8659623 66.881379,62.8073304 C67.1069911,62.6888921 67.0901798,62.3321085 66.9119992,62.1499544 Z M54.1285899,68.4102795 C54.053425,68.6167203 54.0910744,68.8450583 54.1301646,69.0612515 C54.3692067,70.3833037 54.6290134,71.7017859 54.9263907,73.0119499 C54.9664566,73.1884698 55.010825,73.3722549 55.128136,73.510105 C55.2454471,73.6479552 55.459444,73.7215907 55.6123723,73.6247533 C55.8421588,73.4792477 55.7573174,73.1310355 55.6585137,72.8776355 C55.1481489,71.5687129 55.0031013,70.1480382 54.9326669,68.7449027 C54.920301,68.4985589 54.8728008,68.19798 54.6412964,68.1128693 C54.4350915,68.0370596 54.2037548,68.2038388 54.1285899,68.4102795 Z M65.9498698,68.6541094 C66.2185814,68.5515705 66.0327753,68.093279 66.2249234,67.8792714 C65.1094296,67.601099 63.9721619,67.4102886 62.8269632,67.3091627 C62.556861,67.2853116 62.4316272,67.6924023 62.5924591,67.9107074 C62.7532911,68.1290126 63.0473445,68.1911482 63.3145322,68.2373522 C63.5553539,68.2789967 63.7961756,68.3206413 64.0369973,68.3622858 C64.602405,68.4600601 65.1678128,68.5578344 65.7332205,68.6556086 C65.8052978,68.6680728 65.8815293,68.6801877 65.9498698,68.6541094 Z M55.8858491,67.6513582 C57.2702438,67.5701275 58.6624285,67.6221971 60.0368876,67.8066129 C60.3113852,67.8434431 60.6923305,67.81107 60.7291298,67.5365682 C60.7672125,67.2524934 60.3842245,67.1276866 60.0979627,67.1134402 C58.7070461,67.044218 57.313169,67.0345093 55.9214232,67.0843494 C55.6749158,67.0931771 55.3369507,67.2181822 55.4020192,67.4561107 C55.4518996,67.6385029 55.6970839,67.6624341 55.8858491,67.6513582 Z M61.2009769,62.9844178 C61.1360277,63.1199765 61.1342403,63.2760324 61.1337045,63.4263464 C61.1306823,64.2742138 61.12766,65.1220811 61.1246378,65.9699484 C61.1239675,66.1580084 61.1247515,66.3530757 61.2037823,66.5237249 C61.2828132,66.694374 61.4638669,66.8332601 61.6490643,66.800566 C61.9562516,66.7463364 62.0130858,66.334792 61.9960765,66.0233187 C61.9468153,65.1212516 61.8975543,64.2191846 61.8482932,63.3171177 C61.8361763,63.095235 61.7782358,62.8164819 61.5607088,62.7710865 C61.4135639,62.740379 61.2659261,62.8488591 61.2009769,62.9844178 Z M62.1469667,68.8510966 C62.085425,68.6736922 61.9432498,68.5100382 61.757233,68.4843972 C61.5712163,68.4587562 61.3659423,68.6258239 61.4017334,68.810157 C61.6197391,69.9329364 61.8377447,71.0557156 62.0557504,72.1784947 C62.1068122,72.4414747 62.1772262,72.7339128 62.4040604,72.876433 C62.6308944,73.0189532 63.0252072,72.8279197 62.9403344,72.5738285 C62.5960312,71.5430571 62.2490376,70.4943621 62.2124727,69.4082233 C62.2061548,69.220554 62.2085083,69.028501 62.1469667,68.8510966 Z M54.5589284,66.4557997 C54.6601314,66.27492 54.6521237,66.055239 54.6413356,65.8482531 C54.6036931,65.1260242 54.5660506,64.4037955 54.5284079,63.6815667 C54.5167154,63.4572275 54.4971837,63.2132861 54.3454212,63.0476571 C54.1936588,62.8820281 53.8608864,62.8806454 53.7879084,63.0931048 C53.7685179,63.1495559 53.7704228,63.210789 53.7725488,63.2704395 C53.806989,64.2367254 53.841429,65.2030111 53.8758691,66.1692969 C53.8818396,66.3368115 53.9000646,66.5285403 54.0359137,66.6267329 C54.2038939,66.7481503 54.4577253,66.6366793 54.5589284,66.4557997 Z M54.0394422,58.5521612 C53.8475214,58.8173828 53.8388775,59.168773 53.8376671,59.4961484 C53.8359997,59.9472257 53.834332,60.3983028 53.8326577,60.8493799 C53.8317703,61.0912086 53.9203364,61.421409 54.1610284,61.3979728 C54.3492694,61.3796435 54.4244913,61.1495167 54.4558244,60.962999 C54.5965182,60.1254845 54.737212,59.2879699 54.8779058,58.4504554 C54.6805482,58.1892541 54.231363,58.2869396 54.0394422,58.5521612 Z M52.7189734,67.9611079 C52.9171013,67.9434483 53.1379337,67.9264185 53.2717344,67.779232 C53.4055353,67.6320455 53.321933,67.3182773 53.124861,67.3452796 C52.5165824,67.4286247 51.9083037,67.5119699 51.3000252,67.595315 C50.9845427,67.6385418 50.6496427,67.6902542 50.4092988,67.8991384 C50.1689549,68.1080225 50.0894982,68.5324506 50.3354554,68.734695 C51.0585149,68.3024854 51.8799104,68.0358958 52.7189734,67.9611079 Z M50.5014922,62.5143824 C50.3197315,62.6875894 50.2871095,63.035731 50.5021031,63.165405 C51.1985217,62.9329771 51.9198019,62.7751212 52.6496422,62.6954052 C52.8294492,62.6757662 53.0202845,62.6569243 53.1643648,62.5475757 C53.308445,62.438227 53.3719558,62.2019803 53.2416071,62.0765791 C53.1387753,61.9776506 52.975235,61.9921913 52.8341191,62.013344 C52.2883225,62.0951569 51.7425261,62.1769696 51.1967296,62.2587823 C50.9484307,62.2960013 50.6832528,62.3411754 50.5014922,62.5143824 Z M61.8791516,57.8534195 C61.8149248,57.921922 61.7954487,58.0198147 61.7786511,58.1122027 C61.6504657,58.81723 61.5222802,59.5222573 61.3940948,60.2272847 C61.3709267,60.3547104 61.3566301,60.5087055 61.4560362,60.5917266 C61.5575639,60.6765196 61.7231875,60.6243667 61.8033049,60.5191102 C61.8834224,60.4138536 61.9009427,60.275294 61.9157188,60.1438428 C61.995165,59.4370752 62.074611,58.7303077 62.1540571,58.0235402 C62.1611949,57.9600407 62.1663665,57.8891366 62.1267675,57.8389861 C62.0685756,57.7652883 61.9433783,57.7849169 61.8791516,57.8534195 Z M61.6395335,67.1908532 C61.3728591,67.1583232 61.1142262,67.4990258 61.2805164,67.7100258 C61.3968533,67.8576419 61.5333146,68.008269 61.7169116,68.0484801 C61.9005087,68.0886913 62.1287633,67.9548997 62.1111418,67.7677786 C62.085954,67.500311 61.9062079,67.2233832 61.6395335,67.1908532 Z M61.7450414,61.7786782 C61.8349183,61.5626912 61.8564823,61.2171421 61.6241108,61.1900914 C61.5333276,61.1795233 61.4472965,61.2353306 61.3850111,61.3022171 C61.0955385,61.6130742 61.2450823,62.2066775 61.6472825,62.3432847 C61.7763331,62.1945063 61.8217819,61.9776171 61.763318,61.789545 C61.6993638,61.583811 61.6622703,61.9775891 61.7450414,61.7786782 Z M54.5443317,62.1742845 C54.4901705,61.9752871 54.3249634,61.7881832 54.1187373,61.7861246 C53.8514224,61.7834559 53.6764789,62.1629586 53.8521237,62.3644861 C54.0277685,62.5660135 54.4276115,62.4445511 54.4614839,62.1793775 C54.491486,61.9445036 54.6065149,62.4027557 54.5443317,62.1742845 Z M54.7073831,67.6438333 C54.7708438,67.5898225 54.8163844,67.5151012 54.8353045,67.4339441 C54.6593501,67.2373481 54.3509649,67.1736744 54.1115348,67.284504 C54.0584545,67.3090744 54.007165,67.3429107 53.9770028,67.3930252 C53.8907489,67.5363354 54.0338282,67.7289753 54.1988444,67.7563095 C54.3638608,67.7836437 54.5255548,67.7031702 54.6735047,67.6251422 L54.7073831,67.6438333 Z" id="Shape" fill="#00160A"></path>
                </g>
            </g>
        </g>
    </g>
</svg>