<?xml version="1.0" encoding="UTF-8"?>
<svg width="75px" height="168px" viewBox="0 0 75 168" version="1.1" xmlns="http://www.w3.org/2000/svg" xmlns:xlink="http://www.w3.org/1999/xlink">
    <title>Logo / Purple</title>
    <defs>
        <path d="M75,17.1334219 L75,45.5742608 C74.9785455,52.6562303 72.2769836,59.6390453 67.1079276,65.9746413 C62.9352431,71.0906101 46.7651234,104.230507 47.0284326,109.943053 L64.9639927,162.771287 C64.9864733,163.164289 64.9864733,163.55771 64.9639963,163.950649 C64.4324795,173.249051 52.6705711,135.478019 37.5,135.153148 C22.3281505,134.828265 9.47583971,172.07077 10.0066215,162.78695 L27.7308832,109.943053 C27.9954137,104.22573 12.0371628,71.0760499 7.86198972,65.9556723 C2.70734402,59.6230454 0.0164052767,52.6460798 0,45.5669518 L0,17.1303995 C0.0182009624,7.67149483 22.0622405,0.0111244951 37.5,-1.42108547e-14 C52.9384273,0.011552267 74.9817991,7.67151388 75,17.1334219 Z M56.7696338,15.4113267 C56.7625434,14.364223 56.3244886,13.3629587 55.5421371,12.4827571 L55.5421371,38.7132664 C55.5421371,41.7423 51.550889,44.1978169 46.6274349,44.1978169 C41.7039808,44.1978169 37.7127326,41.7423 37.7127326,38.7132664 L37.7127326,9.20629203 L36.485272,9.20629203 L36.485272,38.7132664 C36.485272,41.7423 32.4940238,44.1978169 27.5705697,44.1978169 C22.6471156,44.1978169 18.6558674,41.7423 18.6558674,38.7132664 L18.6558674,12.4804774 C17.873526,13.3591461 17.4354827,14.3578525 17.4284028,15.4006892 L17.4284028,43.8306558 C17.440606,49.2107533 19.4880641,54.5162569 23.4098707,59.3305554 C28.9004692,66.0636176 31.5912195,73.5222411 31.2428662,81.0464106 L27.4317312,161.355511 C27.3618567,162.938397 28.3489361,164.471467 30.1133569,165.568478 C33.9986489,167.895734 40.2184125,167.895734 44.0427124,165.605777 C45.8599234,164.471224 46.8426474,162.934696 46.7665117,161.349052 L42.9550292,81.0411587 C42.6092622,73.5190862 45.3016886,66.0612753 50.791908,59.3317703 C54.7122868,54.5178613 56.7581039,49.2140578 56.7696338,43.8354853 L56.7696338,15.4113267 Z" id="path-1"></path>
        <linearGradient x1="50%" y1="0%" x2="50%" y2="35.2862398%" id="linearGradient-3">
            <stop stop-color="#10EFBD" offset="0%"></stop>
            <stop stop-color="#FE3C5B" offset="100%"></stop>
        </linearGradient>
        <rect id="path-4" x="0" y="0" width="180.71577" height="174.75518"></rect>
    </defs>
    <g id="Food-Delivery-App---High-Fidelity-Design" stroke="none" stroke-width="1" fill="none" fill-rule="evenodd">
        <g id="Splash-Screen" transform="translate(-157.000000, -250.000000)">
            <g id="Logo-/-Purple" transform="translate(157.000000, 250.000000)">
                <mask id="mask-2" fill="white">
                    <use xlink:href="#path-1"></use>
                </mask>
                <g id="Combined-Shape" fill-rule="nonzero"></g>
                <g id="â†³ðŸŽ¨Color" mask="url(#mask-2)">
                    <g transform="translate(-31.041667, 0.000000)">
                        <mask id="mask-5" fill="white">
                            <use xlink:href="#path-4"></use>
                        </mask>
                        <use id="Rectangular" stroke="none" fill="url(#linearGradient-3)" fill-rule="evenodd" xlink:href="#path-4"></use>
                        <g id="â†³âš™ï¸State" stroke="none" stroke-width="1" fill="none" fill-rule="evenodd" mask="url(#mask-5)" opacity="0.100000001">
                            <rect id="Rectangular" x="0" y="0" width="180.71577" height="174.75518"></rect>
                        </g>
                    </g>
                </g>
            </g>
        </g>
    </g>
</svg>