<?xml version="1.0" encoding="UTF-8"?>
<svg width="121px" height="89px" viewBox="0 0 121 89" version="1.1" xmlns="http://www.w3.org/2000/svg" xmlns:xlink="http://www.w3.org/1999/xlink">
    <title>Illustration/Finances</title>
    <g id="Food-Delivery-App---High-Fidelity-Design" stroke="none" stroke-width="1" fill="none" fill-rule="evenodd">
        <g id="Basket-Screen" transform="translate(-219.000000, -548.000000)">
            <g id="Voucher" transform="translate(20.000000, 547.000000)">
                <g id="Illustration/Finances" transform="translate(199.201271, 1.544614)">
                    <path d="M13.0523748,78.3875015 C22.1063595,88.2430478 57.1186925,82.5818608 80.1725881,82.5818608 C90.1182581,82.5818608 123.494247,87.5664621 109.711859,53.3335108 C64.5217047,-58.9106355 -15.6353136,47.160053 13.0523748,78.3875015 Z" id="Blob" fill="#FE3C5B"></path>
                    <path d="M53.8795011,76.2537251 C54.0744052,76.314884 54.2668,76.3904012 54.436536,76.504057 C54.7551956,76.7174327 54.9720546,77.0487065 55.1801164,77.3708607 C55.3292962,77.6018444 55.4805291,77.8372937 55.5549714,78.1019941 C55.635596,78.3886771 55.6212149,78.6946287 55.5672055,78.9874945 C55.3989752,79.8997218 54.8359993,80.732115 54.0519717,81.2278576 C53.2679441,81.7236002 52.2745617,81.8752961 51.3783107,81.636143 C51.20384,81.5895878 51.0281411,81.5261289 50.893941,81.4053077 C50.7811944,81.3038013 50.7052065,81.1685421 50.6356611,81.0337135 C50.2705743,80.3259148 50.0244813,79.5396184 50.052595,78.7437058 C50.0807087,77.9477932 50.4079017,77.142405 51.0276068,76.6421723 C51.8052841,76.0144224 52.9259202,75.9545005 53.8795011,76.2537251 Z M52.8641383,78.7840099 C52.6060454,78.7898301 52.2751272,78.9636919 52.3541201,79.2094679 C52.3998336,79.3516997 52.5749513,79.4175393 52.722034,79.3913426 C52.8691166,79.3651461 52.9937958,79.2713256 53.1122793,79.1803244 C53.1562937,79.1465192 53.2024145,79.1099299 53.221587,79.0578486 C53.2830392,78.8909152 53.0419781,78.7799996 52.8641383,78.7840099 Z" id="Combined-Shape" fill="#FFFFFF"></path>
                    <path d="M94.8543689,31.0489637 C95.4611897,31.260688 96.0111473,31.6330589 96.4330579,32.1178786 C96.7956626,32.5345496 97.0718308,33.0754546 96.9956147,33.6225268 C96.9676358,33.8233566 96.8935511,34.0148846 96.8090464,34.199206 C96.4889835,34.8973272 95.9384673,35.5663514 95.1824692,35.7015568 C94.7859146,35.772478 94.3770272,35.6874854 93.9956486,35.557733 C93.5545249,35.4076541 93.1339962,35.1971726 92.749476,34.9340032 C92.545498,34.7943987 92.3429682,34.62873 92.2535313,34.398301 C92.1918987,34.2395081 92.1900213,34.0646156 92.1923364,33.894297 C92.1980621,33.4730534 92.225982,33.0447029 92.3728503,32.6498502 C92.5586756,32.1502619 92.9222357,31.7378865 93.3077883,31.3698257 C93.4628233,31.2218243 93.6272724,31.0759839 93.826387,30.9966514 C94.1521794,30.8668472 94.5232461,30.9334325 94.8543689,31.0489637 Z M95.0393336,32.9558213 C94.612031,32.9504456 94.2112545,33.3087674 94.1689495,33.7340046 C94.1516592,33.9077995 94.2253852,34.1238216 94.3983877,34.1477746 C94.5279945,34.1657192 94.6417708,34.0655639 94.7288766,33.9679294 C94.9131797,33.7613492 95.0714904,33.5316037 95.1988985,33.2858188 C95.2416526,33.2033413 95.2793287,33.0975242 95.2231349,33.0235465 C95.1821973,32.9696531 95.1070069,32.9566727 95.0393336,32.9558213 Z" id="Combined-Shape" fill="#FFFFFF"></path>
                    <path d="M95.0399815,0.657505533 C97.5507096,3.24681957 99.5324642,6.34303779 100.82972,9.70317351 C100.91882,9.93395994 101.00524,10.1903108 100.920239,10.4226269 C100.26578,12.2113348 99.0027927,13.7025613 97.7643774,15.1525519 C96.9730403,16.0790838 96.1817033,17.0056157 95.3903662,17.9321477 C94.6349186,18.8166588 93.8793411,19.7013177 93.0983994,20.5635745 C89.1221403,24.9538594 84.4237156,28.7928039 78.9821861,31.1548528 C78.7768173,31.2439989 78.5565402,31.3328911 78.3353962,31.2972612 C78.1142521,31.2616313 77.9069988,31.0477571 77.9648917,30.8321687 C78.6376595,28.3268395 79.3147167,25.7075222 78.774882,23.1704665 C78.6446666,22.5584949 78.4994864,21.7879995 79.0071065,21.419752 C83.1168176,18.4384113 86.0757305,14.1769642 88.9114493,9.9734004 C89.6244823,8.91642705 90.3356342,7.85653384 90.9666063,6.74899179 C92.0868809,4.78257906 92.9496687,2.67077894 93.52624,0.483911746 C93.6053603,0.183817705 93.98567,0.0486853772 94.286951,0.127329333 C94.588232,0.205973359 94.8235953,0.434346291 95.0399816,0.657505391" id="Path" fill="#FFFFFF"></path>
                    <path d="M16.738753,10.716661 C17.1469657,14.4069834 18.2830991,18.0153594 20.0627923,21.2738574 C21.1647102,23.2913948 22.5050198,25.1672957 23.8417579,27.0375393 C24.7719302,28.3389525 25.7666442,29.6952174 27.2180278,30.367811 C27.6039278,30.546643 27.5500881,31.1030299 27.4465175,31.51555 C26.9988313,33.2986762 26.7899496,35.1416003 26.827198,36.9796902 C26.8307172,37.1533482 26.8352761,37.333346 26.7670446,37.493077 C26.5354233,38.0353065 25.7418654,37.9449621 25.1955366,37.7231827 C21.815266,36.3509773 19.2200657,33.5914499 16.7957421,30.8653116 C13.6481235,27.3258319 10.547344,23.6308989 8.68790939,19.2745333 C8.56150003,18.978376 8.43882061,18.6666958 8.45996876,18.3453841 C8.4815172,18.0179899 8.64972645,17.7203966 8.82035104,17.4401493 C10.5059817,14.6715365 12.8510132,12.3074163 15.6058696,10.5993961 C15.7999042,10.4790941 16.0070881,10.3585321 16.235254,10.3506393 C16.46342,10.3427466 16.7136519,10.4897427 16.738753,10.716661" id="Path" fill="#FFFFFF"></path>
                    <path d="M94.547247,75.4549439 C94.8385707,74.9613354 95.1996224,74.4177622 95.7650894,74.324136 C95.9879951,74.287229 96.1055514,74.0449823 96.1814229,73.8321618 C97.1161285,71.2102924 97.2062232,68.2946058 96.4351773,65.6200289 C96.2150862,64.8565847 96.4860637,64.0472859 96.7541746,63.299353 C97.4460639,61.3692315 98.137953,59.4391101 98.8298422,57.5089887 C98.4334489,56.8232789 97.3882232,56.8436147 96.8527416,56.2600182 C96.1636918,55.509055 96.683439,54.3150183 97.2232472,53.4505285 C100.376935,48.3999747 103.530622,43.3494209 106.684309,38.2988671 C107.070691,37.6800862 107.91853,37.4861339 108.62916,37.6510163 C109.33979,37.8158988 109.946687,38.2631321 110.531158,38.6996806 C112.831221,40.4176281 115.131284,42.1355752 117.431347,43.8535223 C118.665808,44.7755569 120.028564,45.9533555 119.957494,47.4925077 C119.918167,48.3442146 119.430788,49.1012945 118.959336,49.8117061 C117.136484,52.5584892 115.313631,55.3052723 113.490779,58.0520554 C112.46383,59.5995238 112.747398,61.631878 112.437044,63.462988 C111.946675,66.3562088 109.962656,68.7323099 108.12548,71.0205351 C106.288305,73.3087604 104.450016,75.8638549 104.346755,78.7965202 C104.223682,82.2918819 102.563127,85.7056725 99.8892736,87.9602697 C100.664867,86.0787037 95.7650894,86.8292043 90.1601605,84.5991782 C91.0824979,81.3363167 92.8238417,78.3750203 94.547247,75.4549439 Z" id="Path" fill="#FFFFFF"></path>
                    <path d="M33.0020756,83.6378991 C32.6525835,83.3520114 32.5411304,82.8694423 32.4794293,82.4208306 C31.7656331,77.2309488 34.8311078,72.1083426 34.2850563,66.8979381 C34.0036568,64.2128318 32.7699113,61.7073784 31.2173795,59.5038984 C30.1452401,57.9822307 30.0851149,55.9436894 30.4851113,54.1230167 C30.8851079,52.3023441 31.6919925,50.5999048 32.2362187,48.8174057 C34.6563831,40.8906677 31.7115062,32.4225113 28.8,24.6644628 C34.6016667,21.8589271 41.3717934,22.4023122 47.7990343,22.7824096 C54.2262753,23.1625069 61.1386508,23.1894289 66.4955138,19.6 C67.2297775,27.3649871 65.6107853,35.1385621 64.0009736,42.7689068 C72.1692432,41.9731278 80.3375127,41.1773489 88.5057822,40.3815699 C88.7400915,40.3587427 88.9961789,40.3411256 89.1908443,40.4741567 C89.4504909,40.6515947 89.4903312,41.0134877 89.5052352,41.3286862 C89.8870724,49.4040019 90.1185638,57.4864974 90.2,65.5705159 C90.2015783,65.773247 90.1945683,65.9993423 90.0523556,66.1431389 C89.9306021,66.2662473 89.7446983,66.2919988 89.5730381,66.3111289 C78.1290472,67.5864435 66.6850565,68.8617588 55.2410658,70.1370741 C54.2514254,70.2473594 52.8417068,69.9895906 52.8996659,68.990617 C53.1580979,64.536329 53.0072552,60.0581435 52.449683,55.6316164 C49.4083574,55.5165336 46.3463358,55.9803093 43.4738483,56.9911019 C42.8221559,57.2204243 42.0385585,57.8370029 42.3900389,58.4342998 C44.7153246,62.3858265 41.8292698,68.3254307 44.9873769,71.642391 C46.0732833,72.7829187 45.9982361,74.5771619 45.7830215,76.1408124 C45.3217139,79.4924612 44.5380292,82.7992173 43.4464431,86 C43.9741433,82.3158692 33.3245484,85.6135094 33.0020756,83.6378991 Z" id="Path" fill="#FFFFFF"></path>
                    <path d="M0.269145992,0.00534663798 C0.278922824,0.084014409 0.236356176,0.166619301 0.166618032,0.204312641 C0.111078644,0.148746705 0.0555393218,0.0931806346 0,0.0376145646 C0.0832603891,0.00119840007 0.177687048,-0.00918850377 0.266872329,0.00825878917 L0.269145992,0.00534663798 Z" id="Path" fill="#00160A"></path>
                    <path d="M53.6795013,76.253725 C53.8744052,76.314884 54.0668,76.3904012 54.236536,76.504057 C54.5551956,76.7174327 54.7720546,77.0487065 54.9801164,77.3708607 C55.1292962,77.6018444 55.2805291,77.8372937 55.3549714,78.1019941 C55.435596,78.3886771 55.4212149,78.6946287 55.3672055,78.9874945 C55.1989752,79.8997218 54.6359993,80.732115 53.8519717,81.2278576 C53.0679441,81.7236002 52.0745617,81.8752961 51.1783107,81.636143 C51.00384,81.5895878 50.8281411,81.5261289 50.693941,81.4053077 C50.5811944,81.3038013 50.5052065,81.1685421 50.4356611,81.0337135 C50.0705743,80.3259148 49.8244813,79.5396184 49.852595,78.7437058 C49.8807087,77.9477932 50.2079017,77.142405 50.8276068,76.6421723 C51.6052841,76.0144224 52.7259202,75.9545005 53.6795011,76.2537251 M52.5866139,80.9924229 C53.0741269,80.9183938 53.5031536,80.5999774 53.7833458,80.1942169 C54.0635379,79.7884565 54.2072941,79.301888 54.2763131,78.8136406 C54.315724,78.5348443 54.3193375,78.2153073 54.1225007,78.0139722 C54.0046879,77.8934669 53.836405,77.8396326 53.6749495,77.7913266 C53.0688622,77.6099905 52.3769453,77.4558031 51.8340743,77.7806348 C51.4387377,78.0171877 51.2183196,78.4555257 51.0185171,78.870649 C50.784529,79.3567987 50.8423305,79.9703139 51.1629994,80.4042072 C51.4836683,80.8381005 52.0531994,81.0734221 52.5866139,80.9924228 L52.5866139,80.9924229 Z" id="Shape" fill="#00160A"></path>
                    <path d="M75.9478172,54.3575604 C75.9562823,54.2541347 75.9687322,54.1431818 76.0371821,54.0651873 C76.1041159,53.9889208 76.2094457,53.9615166 76.308275,53.9385061 C78.8550582,53.3455385 81.485609,53.1135551 84.0968627,53.2516447 C84.4293919,53.2692296 84.8571433,53.3818295 84.879142,53.714096 C85.0052767,55.6192472 85.1314116,57.5243983 85.2575464,59.4295494 C85.2639296,59.525962 85.2671302,59.6328516 85.205463,59.7072376 C85.1552205,59.7678418 85.0740758,59.7912862 84.9978996,59.8111449 C82.2819261,60.5191742 79.4191515,60.6587495 76.647183,60.2182857 C76.575806,60.206944 76.5007275,60.1935596 76.4453114,60.147166 C76.3783237,60.0910847 76.3548743,59.9997484 76.3357194,59.9145102 C75.9270449,58.095931 75.7957664,56.215281 75.9478172,54.3575604 Z M76.5483361,57.5179867 C76.5983614,58.2374262 76.7492708,58.9497785 76.9952715,59.6277014 C77.2406192,59.6630823 77.483437,59.714003 77.7278443,59.7553846 C79.8343912,60.112052 81.9888209,59.7532315 84.0950714,59.3948171 C84.244499,59.3693895 84.4083996,59.3355846 84.5006369,59.2153039 C84.594875,59.0924143 84.5823383,58.9212358 84.5653266,58.7673096 C84.4927748,58.1108411 84.4202229,57.4543727 84.347671,56.7979042 C84.34182,56.7449623 84.334317,56.6882084 84.2984915,56.6487925 C84.2550369,56.6009831 84.1838729,56.59324 84.1194055,56.5889959 C82.6226631,56.4904632 81.1209447,56.6021404 79.6251222,56.713772 C78.7983216,56.7754753 77.9715209,56.8371785 77.1447202,56.8988818 C76.9503783,56.9133853 76.7296853,56.9421515 76.6179351,57.1018106 C76.5356181,57.219418 76.5383783,57.3747791 76.5483361,57.5179867 Z M76.5716563,54.7721961 C76.4408257,55.191784 76.41733,55.644363 76.5040085,56.0752429 C76.5195833,56.1526655 76.541494,56.2343428 76.6002664,56.2870935 C76.6873586,56.3652622 76.8202282,56.3523545 76.9360201,56.3353942 C78.3446697,56.1290653 79.7685134,56.0265455 81.1921917,56.0289407 C81.3930135,56.0292786 81.4546378,55.7589054 81.4524367,55.5580953 C81.4492113,55.2638369 81.4459858,54.9695785 81.4427604,54.6753202 C81.4408941,54.5050585 81.4324145,54.3174765 81.3158487,54.19336 C81.175764,54.0442011 80.9416814,54.0488558 80.7376492,54.0644417 C80.2660032,54.1004706 79.7943572,54.1364994 79.3227112,54.1725282 C79.0970954,54.189763 78.4986767,54.3429988 78.2236507,54.3611186 C77.7448176,54.4375207 77.2659844,54.5139227 76.7871513,54.5903248 C76.7360918,54.5984718 76.6822162,54.6078737 76.6428817,54.6414334 C76.6045942,54.6740998 76.5866379,54.7241484 76.5716563,54.7721961 Z M82.8869282,56.0522634 C83.2612206,56.0570812 83.6360411,56.0196349 84.0019827,55.9408644 C84.0891045,55.9221111 84.1806891,55.8982997 84.2428338,55.8344253 C84.3340715,55.7406482 84.3332198,55.5935757 84.3265528,55.4629081 C84.3071946,55.0835158 84.2878366,54.7041234 84.2684786,54.3247309 C84.2615729,54.1893866 84.246351,54.0369653 84.14055,53.952278 C84.0475054,53.8778014 83.916153,53.8822354 83.7972472,53.8903265 C83.381025,53.9186488 82.9648028,53.9469711 82.5485807,53.9752935 C82.4826804,53.9797777 82.4134544,53.985341 82.3583546,54.0217685 C82.2575598,54.0884058 82.2424603,54.2279174 82.2396646,54.3487159 C82.2303582,54.7508549 82.2467853,55.1535877 82.2888121,55.5536329 C82.300979,55.6694481 82.3178074,55.7913907 82.3894601,55.88319 C82.5010932,56.0262109 82.7055128,56.0499283 82.8869282,56.0522634 Z" id="Shape" fill="#FFB61D"></path>
                    <path d="M82.4658273,46.0318962 C83.0221788,45.7911197 83.7048448,45.8717737 84.1897684,46.2355722 C84.674692,46.5993708 84.9430894,47.2322221 84.8675542,47.8337158 C85.2084971,47.6494633 85.640852,47.4679273 85.9589802,47.689254 C86.3182078,47.9391742 86.236143,48.4773437 86.1821807,48.9116163 C86.0879013,49.6703506 86.2101747,50.4547798 86.530907,51.1488239 C86.6633883,51.4355048 86.7771763,51.8704961 86.4832938,51.9861262 C86.4336716,52.00565 86.3796192,52.0101356 86.3264669,52.0144193 C82.8805117,52.2921341 79.4345565,52.5698492 75.9886013,52.8475642 C75.8940979,52.8551804 75.7882659,52.8593035 75.7167828,52.7970214 C75.643846,52.7334728 75.6346847,52.6253656 75.6307461,52.528708 C75.5977177,51.7181644 75.5646892,50.9076208 75.5316608,50.0970772 C75.5228015,49.8796625 75.5185526,49.6452021 75.6413462,49.4655651 C75.8445725,49.1682615 76.2702732,49.1691517 76.6258687,49.1122108 C76.9814641,49.05527 77.395151,48.755241 77.2582826,48.4221382 C77.1056986,48.0507873 77.6257309,47.7794524 78.022636,47.71904 C78.4195413,47.6586277 78.946032,47.4220501 78.8257808,47.0390056 C78.6944201,46.6205728 79.2702445,46.3608483 79.7049958,46.3031151 C80.0117434,46.2623803 80.3325464,46.223 80.6235395,46.3282452 C80.9145325,46.4334904 81.1604835,46.7330768 81.0949403,47.0354963 C81.0199009,47.3817324 81.4416438,47.7043269 81.7741386,47.5820259 C82.1066335,47.4597249 82.2413345,47.0053028 82.0730496,46.6935489 C81.9356008,46.4389197 82.2002713,46.146823 82.4658273,46.0318962 Z M84.245268,51.3732339 C84.1164171,51.1342999 84.1154435,50.8497474 84.1142815,50.5782872 C84.1088247,49.3034355 84.0305011,48.0288991 83.8798205,46.7629717 C83.8722175,46.6990958 83.8601486,46.6276804 83.8078337,46.5902493 C83.7627298,46.5579775 83.7020948,46.5617718 83.6468752,46.5669309 C83.3776595,46.5920835 83.0586674,46.651585 82.9522791,46.9001634 C82.9069016,47.006189 82.9122658,47.1260954 82.9184178,47.2412592 C82.9866729,48.5189739 83.054928,49.7966886 83.1231831,51.0744033 C83.1295412,51.1934251 83.1453711,51.330036 83.2442862,51.3965372 C83.2981627,51.4327585 83.3660583,51.4395234 83.4308822,51.4430612 C83.7038268,51.4579571 83.9788432,51.4343766 84.245268,51.3732339 Z M79.6104188,49.4086794 C79.5770347,49.6215262 79.5301058,49.8328915 79.5176,50.0479772 C79.4966978,50.4074724 79.5724288,50.7647875 79.647731,51.1169284 C79.6960132,51.3427136 79.9878478,51.4538545 80.2016982,51.366802 C80.4155485,51.2797496 80.5447401,51.0515783 80.580279,50.82344 C80.615818,50.5953017 80.5741547,50.3631534 80.5378046,50.1351429 C80.3949998,49.239381 80.3331673,48.3307265 80.3533074,47.4238765 C80.3584043,47.1943811 80.1346258,46.9871288 79.9061945,47.009783 C79.6777632,47.0324372 79.499051,47.2796057 79.5491247,47.5036296 C79.6885343,48.1273321 79.7094469,48.7773054 79.6104188,49.4086794 Z M81.8767519,48.1850418 C81.7424251,48.0090602 81.4344943,48.1027941 81.3296437,48.2977801 C81.2247932,48.4927661 81.256884,48.7292649 81.282872,48.9491235 C81.3507408,49.5232949 81.3572164,50.1047033 81.3021525,50.680244 C81.2859198,50.8499118 81.2679057,51.0351695 81.361579,51.1775632 C81.5056866,51.3966227 81.8218157,51.3946359 82.082682,51.3681254 C82.1644603,51.3598146 82.2584714,51.3439816 82.2996098,51.272817 C82.3282447,51.223282 82.3214809,51.1617563 82.3138425,51.1050524 C82.193555,50.2120908 82.0732674,49.3191293 81.9529798,48.4261677 C81.941591,48.341622 81.9285128,48.2528539 81.8767519,48.1850418 Z M84.8616554,48.5687506 C84.7604113,48.7067749 84.7390775,48.8864591 84.7302856,49.0574088 C84.7001414,49.6435287 84.7777989,50.2292439 84.8552786,50.8110017 C84.8858074,51.0402282 84.9906196,51.3348396 85.2213407,51.3192003 C85.4551619,51.3033511 85.5162165,50.9906022 85.5107812,50.7563076 C85.4963859,50.1357734 85.4819905,49.5152393 85.4675951,48.8947052 C85.4638101,48.7315479 85.4466332,48.5425437 85.3112159,48.4514569 C85.1691818,48.3559195 84.9628995,48.4307264 84.8616554,48.5687506 Z M77.7983124,48.4221382 C77.8667534,48.9620162 77.9129159,49.3695134 77.9367998,49.64463 C77.9817711,50.1626457 78.0390608,50.6795921 78.1086043,51.1948847 C78.1187033,51.2697147 78.1321669,51.350748 78.1873812,51.4022543 C78.2831124,51.4915565 78.6523185,51.4322438 78.7203453,51.3203882 C78.7883721,51.2085325 78.7845736,51.0689172 78.7786471,50.9381342 C78.7599039,50.5245182 78.7411605,50.1109023 78.7224172,49.6972864 C78.7090222,49.4016926 78.6671846,48.9351905 78.5969046,48.2977801 M76.4590002,51.3545168 C76.4885422,51.4472897 76.5233655,51.544372 76.5983741,51.6064465 C76.744745,51.727578 76.9821497,51.6526117 77.0975521,51.5016826 C77.2129545,51.3507536 77.2389524,51.1519318 77.261007,50.9632234 C77.2880687,50.7316725 77.3142637,50.491025 77.2392786,50.2702867 C77.1642935,50.0495485 76.9567459,49.8553081 76.7245235,49.8758243 C76.5109441,49.8946935 76.3455094,50.0898419 76.2956729,50.2983808 C76.2458363,50.5069198 76.2878491,50.7256557 76.3396965,50.9337038 C76.3749587,51.0752004 76.4147538,51.2155673 76.4590002,51.3545168 Z" id="Shape" fill="#E7EAEE"></path>
                    <path d="M90.4280914,18.1922889 C90.1498712,18.609915 89.8482343,19.0329507 89.417735,19.2908042 C88.9872356,19.5486576 88.3929025,19.5988939 88.0060869,19.2792195 C87.5793327,18.9265388 87.5529501,18.2907424 87.5867122,17.7381459 C87.5997106,17.5253959 87.6167811,17.3109407 87.6777355,17.1066955 C87.7834569,16.7524458 88.0143395,16.4501411 88.2553596,16.1698214 C88.5477488,15.8297566 88.8716413,15.5017094 89.2772389,15.31033 C89.6828366,15.1189507 90.1868449,15.0853519 90.5668967,15.3234614 C91.0218096,15.6084728 91.1901294,16.2147545 91.103961,16.744615 C91.0177926,17.2744755 90.7257203,17.7455292 90.4280915,18.1922888 M89.5445453,18.6341286 C89.8953755,18.2604618 90.1962708,17.83997 90.436732,17.3873254 C90.5949721,17.0894541 90.7296247,16.7656923 90.7232811,16.4284581 C90.7169375,16.0912238 90.539096,15.7387329 90.2258772,15.6135883 C89.8179354,15.4505978 89.3700714,15.7113368 89.0291374,15.9883682 C88.7864119,16.1855988 88.5514302,16.4019443 88.3957184,16.6731812 C88.297255,16.844696 88.2332697,17.0334071 88.1698953,17.2207465 C88.0500088,17.5751401 87.9284391,17.9444124 87.9740778,18.3157406 C88.0197163,18.6870689 88.2854497,19.0598509 88.6575885,19.0983246 C89.0020268,19.1339344 89.3075281,18.886574 89.5445453,18.6341286 Z" id="Shape" fill="#FFB61D"></path>
                    <path d="M18.7598488,22.9124607 C19.1956903,23.3539394 19.5554715,23.8703122 19.818649,24.432094 C20.0831508,24.9967025 19.81648,25.7223221 19.297401,26.0677218 C18.7783221,26.4131215 18.0765135,26.4085892 17.5073495,26.1540382 C16.9381854,25.8994872 16.4909175,25.4244165 16.1615007,24.8950503 C15.9131561,24.4959654 15.7205849,24.0486831 15.6999422,23.57909 C15.6792995,23.1094969 15.8521908,22.6152734 16.2236896,22.3272935 C16.5994301,22.0360254 17.1277708,21.9944145 17.5821746,22.1341829 C18.0365785,22.2739514 18.4258474,22.5741395 18.7598487,22.9124607 M17.0592981,22.6439931 C16.6821773,22.6051622 16.3471693,22.9512932 16.2824768,23.3248474 C16.2177844,23.6984016 16.3601827,24.0774165 16.5444486,24.4087379 C16.9440201,25.127192 17.6569504,25.7653477 18.4780811,25.7256244 C18.9001856,25.7052045 19.3628551,25.4128003 19.3553578,24.9902688 C19.3521156,24.8075449 19.26198,24.6389695 19.1719498,24.4799316 C18.9327879,24.0574533 18.6744666,23.639306 18.3294816,23.2977337 C17.9844967,22.9561612 17.5422201,22.6937182 17.0592981,22.6439931 Z" id="Shape" fill="#FFB61D"></path>
                    <path d="M51.7146071,78.4906066 C52.0173598,78.2605956 52.3938988,78.1117168 52.7733261,78.1361957 C53.1527534,78.1606746 53.5282829,78.3783431 53.6870109,78.7238423 C53.8573612,79.0946394 53.7511837,79.5553453 53.4854285,79.8649965 C53.2196733,80.1746477 52.8192128,80.3456557 52.4150818,80.4021164 C52.1392825,80.440648 51.8104515,80.4060153 51.6594567,80.1720271 C51.5865891,80.0591083 51.5700712,79.9200811 51.5554172,79.7864937 C51.5291136,79.5467082 51.5028101,79.3069227 51.4765065,79.0671373 C51.4653625,78.9655474 51.4545939,78.8601301 51.4872808,78.7632991 C51.5257145,78.6494441 51.6189222,78.5633014 51.714607,78.4906066 M52.9122794,79.1803244 C52.9562937,79.1465192 53.0024145,79.1099299 53.021587,79.0578486 C53.0830392,78.8909152 52.8419781,78.7799996 52.6641383,78.7840099 C52.4060454,78.7898301 52.0751272,78.9636919 52.1541201,79.2094679 C52.1998336,79.3516997 52.3749513,79.4175393 52.522034,79.3913426 C52.6691166,79.3651461 52.7937958,79.2713256 52.9122793,79.1803244 L52.9122794,79.1803244 Z" id="Shape" fill="#00160A"></path>
                    <path d="M109.019808,38.5172831 C109.705938,38.6764811 110.291912,39.1082955 110.856233,39.5297936 L117.518531,44.505951 L117.518531,44.505951 C118.710432,45.3961974 120.026205,46.5333902 119.957586,48.0194785 C119.919615,48.8418219 119.449039,49.5728006 118.993841,50.25872 L113.713818,58.2149743 L113.713818,58.2149743 C112.722274,59.7090921 112.996065,61.6713787 112.696412,63.4393592 C112.222948,66.2328331 110.307331,68.5270155 108.533494,70.7363517 C106.759657,72.945688 104.984745,75.4126928 104.885044,78.2442514 C104.766214,81.6191066 103.162908,84.9152032 100.581239,87.0920707 C101.330093,85.2753737 102.078947,83.4586767 102.827801,81.6419796 C103.362057,80.3458905 103.85677,78.7333877 102.962697,77.6536155 C102.558139,77.1650315 101.946699,76.9066036 101.35984,76.6658197 C100.196812,76.1886385 99.033784,75.7114573 97.8707561,75.2342762 C97.6301775,75.1355686 97.3821496,75.0352979 97.1221135,75.0337188 C96.3115336,75.0287965 95.8294046,75.9078686 95.5007286,76.6488384 C94.3637312,79.212094 92.9116428,81.6354003 91.1875477,83.8468565 C92.0780865,80.6964856 93.7593956,77.8372831 95.4233846,75.0178795 C95.7046646,74.5412886 96.0532687,74.0164557 96.5992406,73.9260574 C96.8144614,73.8904228 96.9279648,73.6565278 97.0012206,73.4510445 C97.9037011,70.919567 97.9906897,68.1044018 97.2462265,65.5220338 C97.0337233,64.7849102 97.2953586,64.0035128 97.5542261,63.2813656 C98.2222617,61.4177873 98.8902972,59.5542088 99.5583327,57.6906304 C99.1756056,57.0285612 98.1664151,57.048196 97.6493948,56.4847195 C96.9841007,55.7596466 97.4859291,54.6067756 98.0071269,53.7720901 C101.052088,48.8956595 104.097048,44.019229 107.142009,39.1427985 C107.515069,38.5453508 108.333679,38.3580852 109.019808,38.5172831 Z M65.8962111,20.0422905 C66.6206506,27.6653793 65.02332,35.2968991 63.4350472,42.7878059 C71.4940276,42.0065691 79.5530081,41.2253323 87.6119886,40.4440955 C87.8431629,40.4216855 88.0958239,40.4043903 88.2878848,40.5349904 C88.5440574,40.7091858 88.5833646,41.0644655 88.5980692,41.3739041 C88.9747976,49.3016505 89.2031917,57.2364455 89.2833396,65.1727357 C89.2850955,65.371762 89.2781793,65.5937256 89.1378693,65.7348945 C89.0177448,65.8557532 88.8343283,65.8810341 88.6649649,65.8998146 C77.3740913,67.151824 66.0832178,68.403834 54.7923443,69.655844 C53.815945,69.7641139 52.425088,69.5110556 52.4822717,68.5303374 C52.7372459,64.1574476 52.5884215,59.761097 52.0383094,55.4154608 C49.0376758,55.302481 46.0166232,55.7577816 43.1825687,56.7501029 C42.5395958,56.9752346 41.7664827,57.5805458 42.1132604,58.1669276 C44.4074345,62.0462436 41.5599942,67.8773068 44.6758468,71.1336526 C45.7472241,72.2533381 45.6731809,74.0147931 45.4608459,75.5498693 C45.0057104,78.8402696 44.2325112,82.0865976 43.1555302,85.2288889 L44.7174493,74.3784693 L44.7174493,74.3784693 C44.8181077,73.6792104 44.9068683,72.9156346 44.5427378,72.3102388 C44.2063798,71.751017 43.5625266,71.4642537 42.9473392,71.246515 C41.0027005,70.558232 38.9336026,70.2232985 36.8711328,70.262934 C36.2415397,70.2750333 35.5685033,70.3380976 35.0782292,70.733275 C34.4633873,71.2288583 34.3150003,72.0900844 34.2091061,72.8726569 C33.7563725,76.2184224 33.3036389,79.5641879 32.8509052,82.9099533 C32.5060892,82.62929 32.3961273,82.1555393 32.3352518,81.7151256 C31.631006,76.6200844 34.6554655,71.5910893 34.11672,66.4759003 C33.8390856,63.839862 32.6218472,61.3801936 31.0900879,59.2169802 C30.0322933,57.7231197 29.9729726,55.7218309 30.3676172,53.9344294 C30.7622619,52.147028 31.5583507,50.4756993 32.0952953,48.7257738 C34.4830786,40.94389 31.5776033,32.6304817 28.7050522,25.0142047 C34.4290943,22.2599378 41.1086387,22.7933929 47.449885,23.1665444 C53.7911314,23.5396957 60.6110213,23.5661258 65.8962111,20.0422905 Z M107.995806,54.0006299 C107.523897,54.6054661 107.32372,55.3725972 107.134821,56.1161306 L106.013532,60.5296796 L106.013532,60.5296796 C105.506649,62.524843 104.859,64.7182403 103.101493,65.7900498 C102.961475,65.8754389 102.799135,65.9547664 102.639557,65.9169361 C102.4413,65.8699361 102.328957,65.6650725 102.24628,65.4788481 C101.124567,62.9522784 100.984447,60.0046916 101.861432,57.3831096 C101.914658,57.2240006 101.752828,57.0577644 101.58557,57.0445922 C101.418312,57.0314201 101.261747,57.1225129 101.124663,57.2192424 C99.6856426,58.2346452 99.1344021,60.0740347 98.6766548,61.7747081 C98.4737682,62.5284944 98.2708817,63.2822808 98.0679952,64.0360671 C97.9790865,64.3663904 97.8896935,64.6996474 97.871116,65.0412219 C97.8363435,65.6805626 98.0501268,66.3030721 98.2049377,66.9243605 C98.7903507,69.2737434 98.5258779,71.8254186 97.4710734,74.0047984 C97.3155671,74.3260973 97.7261389,74.6184154 98.0608816,74.7423608 C99.5939943,75.3100268 101.127107,75.877693 102.66022,76.4453591 C103.258438,76.6668619 104.100699,76.8013665 104.38419,76.2299102 C105.756263,73.4641081 107.165948,70.6451058 109.349919,68.4627875 C110.608705,67.2049548 111.380438,65.5265803 111.816977,63.8014374 C112.253517,62.0762946 112.377127,60.289655 112.498985,58.5143141 C111.968984,58.7072687 111.922911,59.4224411 111.925159,59.9864689 C111.930115,61.2298079 111.712745,62.4737096 111.286415,63.6416818 C111.197186,63.8861317 111.077385,64.1502909 110.838462,64.2534081 C110.599539,64.3565253 110.247557,64.1493952 110.327856,63.9018681 C110.944173,62.0020094 111.173873,59.9776325 110.998884,57.9879868 C110.944628,57.3710918 110.82971,56.7111871 110.391113,56.2739958 C110.438744,57.2480285 110.486274,58.2264606 110.387567,59.1966488 C110.216788,60.8752169 109.614927,62.4756137 109.018423,64.0538848 C108.940973,64.2588079 108.847309,64.4821984 108.650531,64.5784813 C108.453752,64.6747643 108.148351,64.5221487 108.199858,64.3092191 C108.497623,63.0782826 108.795388,61.847346 109.093152,60.6164094 C109.584318,58.5859683 110.067325,56.4018264 109.307029,54.4560917 C108.924023,54.430436 108.833835,54.9779674 108.868035,55.3603044 C109.102257,57.9788008 108.378389,60.5777384 107.661654,63.107101 C107.577975,63.4024071 107.281873,63.7716943 107.051772,63.5685651 C106.952564,63.4809866 106.94799,63.330052 106.956021,63.1979626 C107.015287,62.2232417 107.346982,61.2893637 107.593643,60.3445085 C108.132157,58.2816892 108.269516,56.1149391 107.995806,54.0006299 Z M33.4913722,47.6766793 C32.8802738,48.4231117 32.6072679,49.382186 32.3492181,50.3117089 C31.9406477,51.7834222 31.5320775,53.2551355 31.1235072,54.7268487 C30.984793,55.226512 30.84488,55.7356008 30.8615935,56.253892 C30.8866208,57.0299966 31.257809,57.7472474 31.6205142,58.4338402 C32.4395064,59.9841736 33.2584986,61.534507 34.0774908,63.0848405 C34.9699895,64.77432 34.901959,66.7823672 34.9850756,68.6912902 C34.9945201,68.9082023 35.0088479,69.1343516 35.1177624,69.3221752 C35.2266769,69.5099988 35.4606453,69.6440577 35.6638839,69.5676762 C36.715158,69.1725845 37.8843823,69.3583335 38.9911091,69.5492004 C40.1051019,69.7413204 41.2190946,69.9334404 42.3330873,70.1255603 C42.6209342,70.1752026 42.8729998,69.8830761 42.9045507,69.5926889 C42.9361015,69.3023017 42.8176769,69.0197843 42.7237789,68.7431919 C41.8954016,66.3030716 42.8953966,63.5981406 42.4470297,61.0605509 C42.0221099,58.6556627 40.3613899,56.6831755 38.7627808,54.8369651 C38.3175044,54.3227218 38.4564271,53.5482941 38.5585517,52.8757706 C38.7213243,51.8038613 38.7220662,50.7074947 38.5607444,49.6353661 C38.4995999,49.2290066 38.3950935,48.7915415 38.0736394,48.5355456 C37.6535927,48.2010335 36.9998184,48.3233813 36.5989634,48.6806667 C36.1981084,49.0379521 36.000058,49.5678702 35.8627639,50.0869926 C35.6805474,50.7759707 35.5794848,51.4831727 35.4936553,52.1932342 L35.3680955,53.2585507 C35.2592495,54.1449008 35.1227043,55.0237156 34.829708,55.8649867 C34.740743,56.1204293 34.6126535,56.3968392 34.3603131,56.494256 C34.1079727,56.5916726 33.7539988,56.3400462 33.8698859,56.095637 C35.1224824,53.453878 34.975981,50.1953743 33.4913722,47.6766793 Z M87.980431,41.0048167 C84.2166226,41.7313364 80.3864265,42.113555 76.5532703,42.1451431 C75.6618968,42.1524887 74.7746735,42.2592312 73.8896661,42.3658258 C70.5341731,42.7699774 67.1786802,43.174129 63.8231872,43.5782805 C63.6881338,43.594547 63.545235,43.6140074 63.4394705,43.6995521 C63.3312177,43.7871099 63.2825691,43.9273268 63.2452473,44.0614615 C63.0442794,44.7837447 63.0256088,45.5559844 63.1914368,46.2871357 C66.7649606,45.1829055 71.0034086,46.9400045 72.7474958,50.2487138 C74.3737782,53.3339354 74.2184825,57.3191706 72.2351942,60.1879603 C70.251906,63.05675 66.4822426,64.6148115 63.080815,63.8443072 C59.6793873,63.0738029 56.9128194,59.9455342 56.7013419,56.464347 C56.6791675,56.099328 56.2383671,55.9394275 55.8797358,55.8679138 L53.2422205,55.3419746 L53.2422205,55.3419746 C53.1363305,55.3208594 53.0194405,55.3013741 52.926038,55.3555454 C52.7850987,55.437287 52.7752541,55.6334673 52.7825538,55.7962316 C52.9708551,59.9947694 53.1591563,64.1933071 53.3474575,68.3918448 C53.3521077,68.4955278 53.358425,68.6046841 53.4145803,68.6919674 C53.5076504,68.8366271 53.7008259,68.8715977 53.8720629,68.8879173 C54.8169087,68.9779615 55.7690353,68.9066744 56.7146926,68.825595 C67.2721877,67.9204095 77.7245944,65.7984805 88.3163271,65.489835 C88.6897323,65.4789539 88.8035039,64.9825467 88.8051779,64.6089867 C88.8404661,56.7341696 88.5652659,48.8579662 87.980431,41.0048167 Z M102.164867,58.9825345 C102.080751,59.0740478 102.046339,59.1993875 102.014664,59.3195823 C101.936687,59.6154784 101.858259,59.9142927 101.846672,60.2200715 C101.835084,60.5258599 101.890675,60.8297623 101.946039,61.1307204 C102.128246,62.1212045 102.310454,63.1116887 102.492661,64.1021729 C102.515578,64.2267482 102.542397,64.3591437 102.630746,64.4499107 C102.719095,64.5406776 102.89121,64.5603855 102.962706,64.455827 C103.771832,63.2725277 104.592318,62.0661216 105.015582,60.6965487 C105.068207,60.526268 105.083437,60.2868897 104.916628,60.2241247 C104.057329,59.9007988 103.241938,59.4610085 102.49975,58.9205543 C102.39927,58.8473852 102.248982,58.8910213 102.164867,58.9825345 Z M60.2928965,56.4807511 C59.4592718,56.4833045 58.6256471,56.4858394 57.7920225,56.4883744 C57.730459,56.4885615 57.6661405,56.4893998 57.6116469,56.5180448 C57.4879267,56.5830796 57.4726002,56.7519284 57.4812711,56.8914311 C57.5509957,58.0131961 58.1241711,59.0330559 58.6833421,60.0080155 C58.7717093,60.1620907 58.8666308,60.322965 59.0196375,60.4131697 C59.1726443,60.5033745 59.401563,60.4910036 59.494612,60.3397097 C59.8708012,59.7280416 60.3174183,59.159727 60.8228101,58.6495945 C61.0317043,58.4387409 60.9711483,58.0841138 60.846179,57.814895 C60.7212096,57.5456763 60.5422565,57.2803943 60.5563124,56.9839175 C60.5643857,56.8136269 60.6156981,56.5949813 60.4674943,56.5107215 C60.4155395,56.4811832 60.3526608,56.4805877 60.2928965,56.4807511 Z M64.0552266,50.2944422 C63.8141328,50.3754649 63.5536326,50.5026915 63.474554,50.7444299 C63.4295124,50.882121 63.4533193,51.0317877 63.4794396,51.1742842 C63.7673691,52.7450467 64.287711,54.2730058 65.0182842,55.6930273 L62.6159186,55.9629098 L62.6159186,55.9629098 C62.2831796,56.0002899 61.9381962,56.0417468 61.6530851,56.2173148 C61.367974,56.3928829 61.161256,56.7436292 61.2606472,57.0633696 C61.7474486,58.6294042 63.168033,59.9670828 64.807637,60.0008279 C65.567717,60.0164712 66.3096444,59.7639395 66.996178,59.4373846 C67.8012833,59.0544302 68.565535,58.5568191 69.1487979,57.8825393 C70.4959377,56.3251809 70.6464097,53.8540372 69.4986273,52.144433 C68.3508448,50.4348288 66.0071155,49.6384843 64.0552266,50.2944422 Z M108.764916,39.2964937 C108.630873,39.33183 108.536584,39.4484379 108.452277,39.5584758 C104.862104,44.2443431 101.640019,49.2121536 98.8254715,54.4010853 C98.4328072,55.1250055 98.9583222,55.9879311 99.4610935,56.6402093 C99.7122836,56.9660946 100.197202,57.3103894 100.471117,57.0033587 C100.816351,56.6163877 101.382459,56.39517 101.87141,56.5679684 C102.360362,56.7407668 102.664614,57.3766903 102.398695,57.8219086 C102.206353,58.1439387 102.582882,58.501872 102.911852,58.6820884 C103.569117,59.0421518 104.243346,59.371247 104.931554,59.6679169 C105.027246,59.7091674 105.138554,59.7496348 105.231723,59.702967 C105.320452,59.6585236 105.356415,59.5528995 105.384111,59.4576056 C105.638249,58.5831807 105.892387,57.7087558 106.146526,56.8343309 C106.271914,56.4029023 106.355822,55.8430128 105.985806,55.5881777 L104.933653,54.8635455 L104.933653,54.8635455 C104.693694,54.6982825 104.436651,54.5095666 104.362456,54.2278092 C104.248674,53.7957209 104.660184,53.3616886 105.103203,53.3035475 C105.546223,53.2454066 105.979584,53.4592908 106.346743,53.7139293 C106.863893,54.0725915 107.518459,53.5256481 107.9056,53.0294581 C107.383275,52.7169355 106.885012,52.2319297 106.864423,51.6235957 C106.843834,51.0152617 107.583434,50.4358302 108.075677,50.7938679 C108.55278,51.1408933 109.279834,51.1514943 109.592991,51.6514807 C109.806573,51.9924853 109.730638,52.4535449 109.513225,52.7921203 C109.295812,53.1306957 108.961165,53.3737111 108.634428,53.6085397 C109.10344,53.6550245 109.559981,53.8222335 109.94807,54.0896639 C110.089052,53.6788719 110.230033,53.2680798 110.371015,52.8572878 C110.403823,52.7616918 110.439448,52.6617277 110.514666,52.5942204 C110.659588,52.4641541 110.885197,52.5043842 111.070804,52.5632871 C111.557806,52.717838 112.03541,52.9591159 112.356842,53.3562782 C112.678273,53.7534405 112.812242,54.3303649 112.58764,54.7892877 C112.363038,55.2482104 111.729117,55.4929161 111.299601,55.2161981 C111.249232,55.1837472 111.198725,55.1451272 111.148159,55.1038256 L110.920478,54.9116391 C110.718211,54.7456437 110.516881,54.6204487 110.321505,54.7592665 C111.027178,55.3087975 111.511889,56.1343432 111.647899,57.0183457 C113.869464,53.6343631 116.067191,50.234731 118.240861,46.8197866 C118.448351,46.4938094 118.615728,45.9799994 118.277829,45.7925502 C115.012073,43.9808786 112.604264,40.7786137 109.148959,39.361512 C109.026588,39.311325 108.892809,39.2627785 108.764916,39.2964937 Z M118.318879,47.6654101 C116.416038,50.5137791 114.513197,53.3621481 112.610355,56.2105171 C112.456807,56.4403633 112.299496,56.6794693 112.254705,56.9522329 C112.209914,57.2249964 112.310115,57.5421851 112.558413,57.663652 C112.969522,57.864766 113.399615,57.4421534 113.663464,57.0682003 C115.431414,54.5624883 117.199364,52.0567764 118.967313,49.5510646 C119.361115,48.9929302 119.027808,48.2298736 118.690771,47.6357356 C118.661633,47.5843698 118.627858,47.5290192 118.571999,47.5098552 C118.47079,47.4751325 118.378317,47.5764373 118.318879,47.6654101 Z M65.191716,21.2065707 C61.8932501,23.5853088 57.5906038,23.970166 53.5242676,24.0265744 C46.1869761,24.1283578 38.7990686,23.4322777 31.5386878,24.4967386 C30.7773857,24.6083548 29.7857418,25.084597 30.015323,25.818989 L30.5227389,27.4471716 C31.9536967,32.0658184 33.2949778,36.734468 33.7164987,41.5440958 C33.7411556,41.8254359 33.7629238,42.1081766 33.7834337,42.3917318 L33.8428183,43.2442554 C33.9998049,45.5210441 34.1805938,47.8124733 35.2199037,49.8185867 C35.1835607,48.3926846 36.9649461,47.278359 38.2312392,47.9348795 L37.5826907,42.9010159 L37.5826907,42.9010159 C37.5007895,42.2653208 37.2461689,41.4611463 36.6056203,41.4384872 C37.0037188,40.8653234 37.8232014,40.6302871 38.4645718,40.9053202 C38.5718269,40.9513135 38.680127,41.0162412 38.7292314,41.1221081 C38.8108811,41.2981406 38.6992063,41.4972835 38.6078571,41.6684836 C38.1308874,42.5623816 38.176022,43.712067 38.7216009,44.5658217 C39.6259799,43.887449 40.5586939,43.1948625 41.6487268,42.894998 C42.7387598,42.5951336 44.0377894,42.7743373 44.7780681,43.6287833 C45.1523885,44.0608322 45.9139754,43.8642602 46.2552778,43.4056813 C46.5965803,42.9471023 46.6463691,42.343122 46.7216478,41.7764517 C46.7969264,41.2097815 46.9390155,40.5978419 47.3883697,40.2444826 C47.9139669,39.8311682 48.717355,39.9319023 49.2498531,40.3362869 C49.7823511,40.7406716 50.0850618,41.3805495 50.2684125,42.0235609 C50.4169242,42.5443921 50.5635593,43.1631043 51.063271,43.3719323 C51.4474225,43.532468 51.8873731,43.3721258 52.253205,43.1733517 C53.1462572,42.6881132 53.8937755,41.9777456 54.730247,41.400412 C55.5667185,40.8230783 56.5630492,40.366737 57.5704593,40.5013617 C58.5778693,40.6359863 59.5240273,41.5533303 59.379804,42.5594111 C59.1513425,44.153125 59.17944,45.783337 59.4626863,47.3682314 C52.7640309,48.0643807 46.040194,48.5181932 39.3087465,48.728483 C39.1846865,48.7323587 39.1522219,48.9006965 39.1577911,49.0246919 C39.2094519,50.1748807 39.2611126,51.3250695 39.3127734,52.4752583 C39.3497262,53.2979873 39.3893932,54.1350717 39.6664038,54.9106448 C39.9434144,55.6862179 40.4985868,56.4052342 41.2768331,56.6746431 C41.4380931,56.730467 41.6212689,56.7648365 41.7752866,56.6913549 C45.6179807,54.8580125 50.0128744,54.2022693 54.2233756,54.8340289 C55.5252986,55.0293743 56.8084036,55.3441473 58.1156219,55.5001711 C59.8539222,55.707647 61.6258514,55.6306565 63.3396049,55.2731887 C63.5736416,55.2243715 63.8730034,55.0566979 63.7852031,54.8343303 C61.701517,49.5570862 62.4427634,43.6217626 63.5318196,38.0535485 C63.687399,37.2580894 63.8495807,36.4605972 64.0108492,35.6615283 L64.2511277,34.4617995 C65.122748,30.0588761 65.8530725,25.6151594 65.191716,21.2065707 Z M104.924665,53.8002309 C104.811935,53.9232444 104.835932,54.1269621 104.933165,54.2625573 C105.030398,54.3981526 105.182499,54.4817512 105.3294,54.5608746 C105.584317,54.6981775 105.839234,54.8354804 106.09415,54.9727832 C106.23951,55.0510765 106.424426,55.1279689 106.558965,55.0322693 C106.670672,54.9528102 106.6852,54.79032 106.653933,54.6568487 C106.5361,54.1538565 105.984632,53.8969091 105.48947,53.7495976 C105.297923,53.6926117 105.059683,53.6528952 104.924665,53.8002309 Z M110.951445,53.1788627 C110.93488,53.1888067 110.922182,53.2039929 110.910618,53.2194701 C110.748651,53.4362593 110.76517,53.7515308 110.900304,53.9859871 C111.035438,54.2204433 111.269365,54.3832884 111.516226,54.4941515 C111.60085,54.5321554 111.693697,54.565583 111.784677,54.5474713 C111.862916,54.5318961 111.929916,54.479108 111.977719,54.4152426 C112.154425,54.1791614 112.068666,53.8235631 111.866241,53.609125 C111.663816,53.3946868 111.375846,53.2872877 111.098616,53.1867715 C111.050773,53.1694246 110.995077,53.1526689 110.951445,53.1788627 Z M64.4648863,46.6212964 C64.0904688,46.6910481 63.6997873,46.8036478 63.4433208,47.0852125 C62.85786,47.7279665 63.2978288,48.7329051 63.3493082,49.6008031 C65.0220621,49.3169154 66.8087606,49.4960948 68.2890384,50.3252364 C69.7693163,51.1543779 70.8952719,52.6828852 71.0248507,54.3746025 C71.6873461,54.3874921 72.3489936,54.4437921 73.0041423,54.5430215 C72.9640043,53.5372448 72.8797439,52.5239214 72.5880647,51.560531 C72.0853931,49.9002514 70.9530846,48.4389884 69.4708707,47.5377398 C67.9886567,46.6364913 66.1702525,46.3035968 64.4648863,46.6212964 Z M102.532913,51.4295445 C102.920163,51.693595 103.54923,51.6328232 103.75072,52.0560101 C103.903068,52.3759868 103.685408,52.7413266 103.477056,53.0280056 C103.352307,53.1996528 103.227558,53.3713 103.102808,53.5429472 C103.02897,53.6445447 102.944386,53.7534546 102.821768,53.7806383 C102.698728,53.8079152 102.575688,53.7444339 102.465606,53.6830773 C101.980716,53.4128138 101.495826,53.1425505 101.010937,52.8722873 C100.871977,52.7948349 100.826585,52.6076122 100.864631,52.4531412 C100.902677,52.2986703 101.004931,52.169244 101.10448,52.0451522 C101.283848,51.821562 101.469218,51.5927412 101.717772,51.4499608 C101.966327,51.3071805 102.296083,51.2680597 102.532913,51.4295445 Z M101.386432,52.4171899 C101.716762,52.5853059 102.047092,52.7534219 102.377422,52.9215379 C102.447529,52.9572176 102.525832,52.9939143 102.601878,52.9737877 C102.658739,52.9587381 102.702513,52.9145727 102.743314,52.8722064 C102.895143,52.7145563 103.046972,52.5569062 103.198801,52.3992562 C102.901568,52.2554605 102.596524,52.1093916 102.267953,52.0767411 C101.939383,52.0440905 101.576995,52.1475417 101.386432,52.4171899 Z M112.518603,49.8743751 L113.484992,50.4492926 L113.484992,50.4492926 C113.638986,50.5409057 113.796677,50.635715 113.907131,50.776808 C114.017584,50.9179011 114.071809,51.1177726 113.994578,51.2794589 C113.90074,51.4759095 113.654712,51.5518643 113.529203,51.7297564 C113.365357,51.9619835 113.433533,52.3266574 113.214183,52.507379 C112.991724,52.6906631 112.660938,52.5438062 112.414987,52.393509 L111.053463,51.5615017 L111.053463,51.5615017 C110.916124,51.4775759 110.771287,51.385461 110.703847,51.239319 C110.636408,51.093177 110.691392,50.8800322 110.847981,50.8428085 C111.289613,50.7378249 111.171036,50.0023231 111.533158,49.7285923 C111.815234,49.5153687 112.214716,49.6935885 112.518603,49.8743751 Z M107.800022,51.1228603 C107.456833,51.0878427 107.258773,51.5699446 107.415473,51.8772717 C107.572173,52.1845988 107.918215,52.336893 108.238421,52.4652393 C108.464451,52.5558378 108.738602,52.6412267 108.935658,52.4981646 C109.218837,52.2925774 109.066015,51.8303028 108.812626,51.5889512 C108.538633,51.3279747 108.17646,51.1612702 107.800022,51.1228603 Z M111.85838,50.4841841 C111.641096,50.7212798 111.609527,51.1082162 111.785504,51.3773976 C111.961482,51.6465789 112.328583,51.772884 112.63293,51.6689633 C112.827892,51.6023928 112.984591,51.4578088 113.135034,51.3170659 C113.244046,51.2150828 113.098161,51.0471531 112.968083,50.9739135 L112.133923,50.5042435 L112.133923,50.5042435 C112.046913,50.4552532 111.925845,50.4105683 111.85838,50.4841841 Z M104.104199,48.3278101 C104.344505,48.4061102 104.51782,48.6095867 104.699646,48.7851337 C104.881472,48.9606806 105.114311,49.1247744 105.364686,49.0902791 C105.682421,49.0465034 105.948047,49.3883421 105.942694,49.7090333 C105.937342,50.0297244 105.745485,50.3148314 105.546653,50.5665004 C105.347821,50.8181696 105.128184,51.0701918 105.049404,51.381102 C105.019142,51.5005318 104.885653,51.5702757 104.762476,51.5676921 C104.639299,51.5651084 104.524781,51.5071906 104.41671,51.4480292 C103.814966,51.1186134 103.257598,50.7082591 102.764337,50.2314945 C102.654821,50.1256404 102.549034,49.9386673 102.666124,49.8412563 C103.05741,49.5157327 103.479273,49.1336058 103.517593,48.6260607 C103.536621,48.3740381 103.863894,48.2495101 104.104199,48.3278101 Z M108.983349,47.6363715 C109.161608,47.6335482 109.321946,47.7370893 109.469789,47.8367223 C109.926776,48.144692 110.383763,48.4526615 110.840751,48.7606312 C110.918745,48.8131926 110.998541,48.86749 111.052612,48.9444454 C111.208381,49.1661393 111.096563,49.469519 110.981185,49.7146722 C110.855583,49.9815498 110.72998,50.2484275 110.604378,50.5153051 C110.554889,50.6204571 110.499174,50.7324102 110.397065,50.7879059 C110.223117,50.8824457 110.012983,50.7708348 109.847452,50.6622296 L107.749556,49.2858015 L107.749556,49.2858015 C107.548158,49.1536644 107.669221,48.8402464 107.816643,48.6497522 C108.010291,48.3995268 108.220366,48.1620157 108.445066,47.9392551 C108.595094,47.790522 108.772117,47.6397169 108.983349,47.6363715 Z M103.718705,49.342839 C103.544027,49.5023778 103.528278,49.8271079 103.724226,49.9596585 C103.981113,50.1334316 104.237999,50.3072046 104.494886,50.4809777 C104.542081,50.5129028 104.594969,50.546285 104.651479,50.5389993 C104.704666,50.5321421 104.746036,50.4910634 104.783064,50.4522713 C104.891188,50.3389934 105.002088,50.2213713 105.056601,50.0745683 C105.111113,49.9277653 105.094664,49.7427387 104.975562,49.6410654 C104.795637,49.4874687 104.610308,49.3308336 104.387627,49.2509698 C104.164945,49.1711059 103.893384,49.1833001 103.718705,49.342839 Z M108.589621,48.57433 C108.432266,48.6696982 108.362219,48.9099587 108.48608,49.046026 C108.858432,49.4550753 109.343235,49.760719 109.872854,49.9203164 C109.95944,49.9464087 110.051361,49.9687933 110.139494,49.9485321 C110.401676,49.8882578 110.436061,49.4959808 110.269766,49.2845138 C110.103471,49.0730469 109.831828,48.9820597 109.59804,48.8489592 C109.438139,48.7579241 109.290834,48.6433177 109.121174,48.5721054 C108.951514,48.5008931 108.746976,48.4789618 108.589621,48.57433 Z M108.418867,40.8551925 C108.645181,40.8733627 108.842487,41.0093846 109.027626,41.1408058 L116.197894,46.2306182 L116.197894,46.2306182 C116.337457,46.3296874 116.487727,46.4445634 116.521939,46.6122602 C116.54987,46.7491668 116.492514,46.8876217 116.434834,47.0148872 C116.125576,47.6972345 115.769929,48.3585531 115.371164,48.9927654 C115.280855,49.1363975 115.177726,49.2874514 115.018747,49.3467104 C114.869016,49.4025222 114.701844,49.364355 114.549403,49.316437 C113.376912,48.9478782 112.454564,48.0618772 111.519487,47.2642553 C110.153874,46.0993868 108.671852,45.0710619 107.102671,44.1995769 C106.943017,44.1109092 106.775604,44.0175835 106.677813,43.8633499 C106.580021,43.7091162 106.582929,43.4743163 106.733751,43.3713413 C107.437402,42.89092 107.893726,42.0665109 107.927236,41.2151554 C107.936166,40.9882889 108.192553,40.8370224 108.418867,40.8551925 Z M105.738009,45.7159647 C106.442534,46.05813 107.087815,46.5218746 107.63675,47.080536 C107.76883,47.2149559 107.78522,47.4313457 107.726434,47.6103932 C107.667649,47.7894408 107.54645,47.9401179 107.427682,48.0864324 C107.236794,48.3215946 107.033323,48.56623 106.751745,48.6778254 C106.447788,48.7982902 106.094153,48.7401832 105.806265,48.5851913 C105.518378,48.4301994 105.28742,48.1876956 105.083769,47.9319062 C104.818129,47.5982567 104.580313,47.1980872 104.621575,46.7736061 C104.648614,46.4954551 104.792647,46.2442319 104.933406,46.0028065 C105.027884,45.840759 105.142563,45.6634117 105.32587,45.6236085 C105.466166,45.5931446 105.608868,45.6532451 105.738009,45.7159647 Z M108.666539,41.8606244 C108.392808,42.3433145 108.119077,42.8260044 107.845347,43.3086945 C107.761036,43.4573657 107.688112,43.672382 107.824649,43.7751878 C109.775013,45.2437102 111.725377,46.7122326 113.675741,48.1807551 C113.996215,48.4220556 114.494145,48.6481693 114.7465,48.3363258 C115.036236,47.9782907 115.306842,47.6047774 115.556781,47.2179104 C115.625183,47.1120347 115.694902,46.9911335 115.670264,46.8675156 C115.647776,46.7546918 115.552892,46.6727777 115.463532,46.6003225 C113.316183,44.8591894 111.042602,43.2737699 108.666539,41.8606244 Z M105.6763,46.6131112 C105.492809,46.6142754 105.306013,46.803512 105.381105,46.9709383 C105.369815,47.0518044 105.722586,47.6985646 106.165673,47.8708608 C106.60876,48.0431571 106.892229,47.906579 106.903877,47.6159895 C106.911228,47.4326183 106.751229,47.29142 106.605765,47.1795297 C106.459068,47.0666899 106.31237,46.9538501 106.165673,46.8410104 C106.020228,46.7291343 105.859792,46.611947 105.6763,46.6131112 Z M48.1531722,41.2441912 C47.6435706,41.8030164 47.5353395,42.6047005 47.317147,43.3288354 C47.0989545,44.0529704 46.6308042,44.8263668 45.8795225,44.9132872 C44.822137,45.0356225 44.1121996,43.7572368 43.070224,43.5397127 C42.3796412,43.3955456 41.6919467,43.7445611 41.0725759,44.0823014 C40.4773858,44.4068561 39.8713343,44.7396763 39.407309,45.2339105 C38.9432838,45.7281447 38.6368965,46.420216 38.7710355,47.0847411 C38.8308565,47.3810953 38.9959916,47.6777604 39.2739431,47.7967027 C39.4211072,47.8596778 39.5851668,47.8673321 39.74514,47.8729598 C42.277632,47.9620493 44.8105677,47.7673864 47.3371497,47.5728729 C50.9447532,47.295135 54.5523566,47.0173971 58.15996,46.7396593 C58.5995646,45.712501 58.7152032,44.5494568 58.4864611,43.4558465 L58.446586,43.2764697 L58.446586,43.2764697 L58.3590494,42.9143824 C58.2272597,42.3691243 58.1151926,41.8179152 58.3185555,41.3096321 C56.6981536,41.3542501 55.0993645,41.9735777 53.8717602,43.0322004 C53.2573407,43.5620441 52.6634323,44.2320209 51.8569376,44.320406 C51.1085222,44.4024261 50.3928874,43.9335537 49.932963,43.3374643 C49.4730386,42.7413749 49.2068709,42.0231102 48.8722389,41.3486664 C48.8104322,41.2240961 48.7328706,41.0892672 48.5997713,41.0489884 C48.4354402,40.9992583 48.26886,41.1173287 48.1531722,41.2441912 Z M15.835254,9.55063931 C16.06342,9.54274659 16.3136519,9.68974266 16.338753,9.91666099 C16.7469657,13.6069834 17.8830991,17.2153594 19.6627923,20.4738574 C20.7647102,22.4913948 22.1050198,24.3672957 23.4417579,26.2375393 C24.3719302,27.5389525 25.3666442,28.8952174 26.8180278,29.567811 C27.2039278,29.746643 27.1500881,30.3030299 27.0465175,30.71555 C26.5988313,32.4986762 26.3899496,34.3416003 26.427198,36.1796902 C26.4307172,36.3533482 26.4352761,36.533346 26.3670446,36.693077 C26.1354233,37.2353065 25.3418654,37.1449621 24.7955366,36.9231827 C21.415266,35.5509773 18.8200657,32.7914499 16.3957421,30.0653116 C13.2481235,26.5258319 10.147344,22.8308989 8.28790939,18.4745333 C8.16150003,18.178376 8.03882061,17.8666958 8.05996876,17.5453841 C8.0815172,17.2179899 8.24972645,16.9203966 8.42035104,16.6401493 C10.1059817,13.8715365 12.4510132,11.5074163 15.2058696,9.79939611 C15.3999042,9.67909408 15.6070881,9.5585321 15.835254,9.55063931 Z M58.3657273,28.234088 C58.613558,28.3512494 58.6832125,28.6647292 58.7230754,28.9359445 C58.984584,30.7151773 59.2460929,32.49441 59.5076018,34.2736426 C59.5175071,34.3410356 59.5262665,34.4146809 59.4911709,34.4730608 C59.4447042,34.5503557 59.3427016,34.5688032 59.2531341,34.5793535 C57.4010876,34.7975082 55.5381465,34.9231461 53.6735791,34.9556421 C52.6000076,34.9743525 51.5258537,34.9622122 50.4527612,34.9993407 C45.6732393,35.1647098 40.9847675,36.3028518 36.2341996,36.8535617 C35.8912029,36.8933236 35.4864696,36.9068587 35.2660124,36.6411025 C34.9318916,36.2383275 35.3270581,35.6544546 35.702472,35.2898605 C36.6329466,34.3862032 37.5634213,33.4825459 38.4938959,32.5788887 C38.9267434,32.1585164 39.4522697,31.7056978 40.0496707,31.7904446 C40.5424781,31.8603537 40.8997267,32.2741159 41.2854478,32.588704 C41.671169,32.9032921 42.2597302,33.1267296 42.6422218,32.8082227 C44.131288,31.5682532 45.6905761,30.4126206 47.3101234,29.3487086 C47.8697593,28.9810729 48.5525512,28.6107287 49.1747947,28.8580368 C50.7162183,29.4706692 52.2639649,30.0673924 53.8177048,30.6480794 C54.2982364,30.827671 54.812468,31.0084913 55.3135051,30.898375 C56.4314814,30.6526696 56.7653611,29.2212229 57.6148094,28.4539682 C57.8203459,28.2683194 58.115331,28.1157138 58.3657273,28.234088 Z M25.0110468,34.9051357 C24.6595754,34.9653052 24.3136521,35.057843 23.9790829,35.1811958 C23.9269235,35.2004265 23.8709107,35.2238623 23.8439557,35.2724818 C23.789605,35.3705159 23.8871168,35.4814112 23.9758583,35.5498921 C24.4438876,35.9110641 24.9392401,36.2368206 25.456285,36.5234583 C25.4474529,36.1033206 25.4386208,35.6831829 25.4297887,35.2630452 C25.4273684,35.1479102 25.4178812,35.0174603 25.3287582,34.9445287 C25.2434506,34.8747194 25.1196966,34.8865356 25.0110468,34.9051357 Z M47.805407,29.9542903 C45.9962741,31.1508984 44.2492919,32.4414636 42.5738529,33.8190473 C42.2324894,34.099724 41.7095658,33.9014489 41.3718782,33.6163602 C41.0341906,33.3312714 40.7360524,32.9545266 40.3054537,32.855062 C39.7016111,32.7155793 39.1392626,33.1754896 38.6895025,33.6018664 C37.8703663,34.3784155 37.0454509,35.1615789 36.3944756,36.0836654 C37.9175817,36.0785733 39.4193504,35.7583887 40.9168839,35.4804115 C46.4699473,34.4496329 52.1277527,33.9839969 57.7746218,34.0930236 C58.1198854,34.0996898 58.4100674,33.7991322 58.5088425,33.4682322 C58.6076177,33.1373322 58.5591306,32.7826601 58.5098297,32.4408695 C58.4028021,31.6988786 58.295775,30.9568876 58.1887479,30.2148967 C58.1633927,30.0391156 58.1322031,29.8509513 58.0089344,29.7230971 C57.8856657,29.5952428 57.6366965,29.5773455 57.5511146,29.7329655 C57.1111013,30.5330746 56.5888008,31.4024655 55.7150285,31.6676226 C54.9634009,31.8957134 54.1626167,31.6075115 53.4304764,31.323012 L49.043623,29.6183424 L49.043623,29.6183424 C48.628459,29.4570155 48.1769042,29.7085724 47.805407,29.9542903 Z M94.8543689,31.0489637 C95.4611897,31.260688 96.0111473,31.6330589 96.4330579,32.1178786 C96.7956626,32.5345496 97.0718308,33.0754546 96.9956147,33.6225268 C96.9676358,33.8233566 96.8935511,34.0148846 96.8090464,34.199206 C96.4889835,34.8973272 95.9384673,35.5663514 95.1824692,35.7015568 C94.7859146,35.772478 94.3770272,35.6874854 93.9956486,35.557733 C93.5545249,35.4076541 93.1339962,35.1971726 92.749476,34.9340032 C92.545498,34.7943987 92.3429682,34.62873 92.2535313,34.398301 C92.1918987,34.2395081 92.1900213,34.0646156 92.1923364,33.894297 C92.1980621,33.4730534 92.225982,33.0447029 92.3728503,32.6498502 C92.5586756,32.1502619 92.9222357,31.7378865 93.3077883,31.3698257 C93.4628233,31.2218243 93.6272724,31.0759839 93.826387,30.9966514 C94.1521794,30.8668472 94.5232461,30.9334325 94.8543689,31.0489637 Z M94.2787259,31.6044902 C94.145442,31.6413683 94.0204202,31.7041513 93.9037307,31.7783682 C93.404273,32.0960341 93.0536114,32.6379428 92.9684716,33.2237079 C92.8833317,33.8094731 93.065212,34.4287857 93.4535695,34.8754937 C93.702273,35.1615649 94.1081077,35.2842083 94.4841831,35.2366955 C94.8602583,35.1891828 95.2052908,34.987258 95.4747498,34.720646 C95.9132692,34.2867599 96.1683849,33.6577698 96.0989266,33.0448001 C96.0294682,32.4318304 95.6146284,31.8566437 95.0343198,31.6473631 C94.7932078,31.5604092 94.5257566,31.5361395 94.2787259,31.6044902 Z M13.2406663,12.4406877 C13.1424016,12.4545705 13.0556334,12.5101321 12.9736527,12.5660593 C12.1268611,13.1437391 11.4110569,13.912255 10.8948998,14.7978914 C10.7745517,15.0043878 10.6621692,15.2513789 10.7484938,15.4742522 C11.1368826,16.476996 11.1224482,17.5839421 11.1026762,18.6590932 C11.0874655,19.4862155 10.9988692,20.4517761 10.3011007,20.8961654 L14.4349297,26.2076252 L14.4349297,26.2076252 C16.7773956,29.2174047 19.161527,32.268195 22.2380529,34.5222818 C22.4049814,34.6445858 22.6046355,34.7706935 22.8045827,34.7173601 L25.3535342,34.0374607 L25.3535342,34.0374607 C25.4425167,34.0137258 25.535099,33.9880933 25.6036,33.9265396 C25.6958313,33.8436622 25.7257593,33.7135927 25.750893,33.5921697 C25.873716,32.9988008 25.9581859,32.2803589 25.503048,31.8803319 C24.4919256,30.9916425 24.9960578,29.193806 24.1334982,28.1603031 C20.9953625,24.4002462 18.319398,20.1740302 16.8941433,15.4884593 C16.7795309,15.111667 16.561663,14.6489049 16.1687872,14.6764186 C15.1369975,14.7486769 14.3848156,13.7561282 13.8375026,12.8784838 C13.6989227,12.6562636 13.4999808,12.4040519 13.2406663,12.4406877 Z M94.9002924,32.4769574 C95.2126829,32.4813729 95.5652581,32.5459582 95.7365701,32.8072236 C95.8899797,33.0411863 95.8419152,33.3537894 95.7401352,33.6143922 C95.6059924,33.9578589 95.3792836,34.2760977 95.0589977,34.4588014 C94.7387119,34.6415051 94.3180746,34.6682207 94.0059769,34.4718571 C93.6938792,34.2754935 93.5371944,33.8387825 93.7044287,33.5101545 C93.7801117,33.3614311 93.9097546,33.2459063 93.9878818,33.0984522 C94.0492961,32.9825412 94.0775172,32.8493603 94.1531887,32.7422114 C94.3120332,32.5172915 94.6249646,32.4730659 94.9002924,32.4769574 Z M95.0393336,32.9558213 C94.612031,32.9504456 94.2112545,33.3087674 94.1689495,33.7340046 C94.1516592,33.9077995 94.2253852,34.1238216 94.3983877,34.1477746 C94.5279945,34.1657192 94.6417708,34.0655639 94.7288766,33.9679294 C94.9131797,33.7613492 95.0714904,33.5316037 95.1988985,33.2858188 C95.2416526,33.2033413 95.2793287,33.0975242 95.2231349,33.0235465 C95.1821973,32.9696531 95.1070069,32.9566727 95.0393336,32.9558213 Z M25.3876136,29.8146806 C25.3537746,29.8606749 25.3537786,29.9227173 25.3585154,29.9796214 C25.3901691,30.3598729 25.5768044,30.7249391 25.8665041,30.9732678 C25.993416,30.633255 25.9498644,30.2342881 25.7525835,29.9296644 C25.6706774,29.8031919 25.476908,29.6933117 25.3876136,29.8146806 Z M93.890469,1.32607584 C94.1735181,1.40024151 94.3946385,1.61560983 94.5979302,1.82606121 C96.9567224,4.26792781 98.8185518,7.18783297 100.037305,10.3566269 C100.121013,10.5742713 100.202203,10.8160244 100.122346,11.0351113 C99.5074916,12.7219619 98.3209332,14.128271 97.1574602,15.4956924 C96.4140106,16.3694633 95.670561,17.2432342 94.9271115,18.1170051 C94.2173795,18.951148 93.5075255,19.7854303 92.7738422,20.5985863 C89.038205,24.7388679 84.6241038,28.359205 79.5118665,30.5867479 C79.3189256,30.6708176 79.1119785,30.7546478 78.9042169,30.7210469 C78.6964553,30.687446 78.5017438,30.4857507 78.5561334,30.282439 C79.1881888,27.9197749 79.8242742,25.4496136 79.3171074,23.0570297 C79.194772,22.4799066 79.0583773,21.7532868 79.5352789,21.406009 C83.3962923,18.5944397 86.1761476,14.5756592 88.8402639,10.6114659 C89.5101479,9.61468149 90.1782648,8.61514353 90.7710538,7.57067006 C91.8235353,5.71623402 92.6341119,3.72468961 93.1757922,1.6623528 C93.2501246,1.37934751 93.6074199,1.25191024 93.890469,1.32607584 Z M80.2526777,27.4068503 C80.1588409,27.4427676 80.0655836,27.4896408 80.0009041,27.5665299 C79.9251615,27.6565706 79.897491,27.7764436 79.8732022,27.8915711 C79.7504618,28.4733547 79.6536675,29.0606117 79.5832035,29.6510118 C79.8053787,29.7673982 80.0744218,29.65675 80.2967643,29.5406836 C80.8811371,29.2356314 81.4440103,28.8894027 81.9798289,28.5054147 C82.121423,28.4039429 82.1635774,28.201267 82.1135326,28.0344109 C82.0634879,27.867555 81.9381811,27.733047 81.7994244,27.6277286 C81.3662255,27.2989246 80.7605926,27.212439 80.2526777,27.4068503 Z M45.0209109,28.1941694 C45.1666605,28.2671115 45.2606055,28.4666661 45.1654341,28.5989761 C45.0952667,28.6965247 44.9607025,28.7163367 44.841101,28.7279427 C41.7877913,29.0242328 38.7344816,29.320523 35.6811719,29.6168132 C35.4907037,29.635296 35.2196901,29.5805073 35.2364285,29.389878 C35.2494983,29.2410285 35.4365553,29.1871776 35.5850285,29.1703636 C38.570237,28.8323006 41.5554452,28.4942376 44.5406535,28.1561745 C44.7026014,28.1378345 44.8751612,28.1212274 45.0209109,28.1941694 Z M39.4006214,27.0792735 C39.6902323,27.0707615 40.0766458,27.1465023 40.0970383,27.4355197 C38.5667757,27.6534558 37.0365133,27.8713916 35.506251,28.0893274 C35.258853,28.1245612 34.9815509,28.1526363 34.7824934,28.0015626 C34.5834359,27.8504889 34.603473,27.4505844 34.8515585,27.4205724 C36.3616893,27.2378855 37.8801371,27.1239621 39.4006214,27.0792735 Z M96.4222403,4.82823329 C95.3306251,5.30212082 94.0467971,5.31328182 92.947108,4.8584444 C92.7074158,4.75930639 92.4863286,5.02742915 92.3642295,5.25627962 C89.7886083,10.083778 87.2437796,15.0565875 83.3179675,18.8679606 C82.9660799,19.2095906 82.5728243,19.6223024 82.6376633,20.1084422 C82.8455039,21.6667531 82.013574,23.312358 80.6354681,24.0688993 C80.0097949,24.4123763 80.0171932,25.2986431 80.1088507,26.0064866 C80.1455464,26.2898766 80.252571,26.6450734 80.5373172,26.6690749 C81.3725318,26.7394757 82.1739948,27.1505807 82.7184316,27.7878626 C82.890179,27.9888989 83.2156927,27.8632294 83.4395426,27.722503 C89.0738158,24.1804352 93.4029306,18.9485466 97.6298273,13.808058 C97.7756542,13.6307124 97.9308199,13.407269 97.854769,13.1906283 C97.2151421,11.3685709 97.3176627,9.2978915 98.1341428,7.54792696 C97.6523868,6.58931713 97.0782372,5.67716765 96.4222403,4.82823329 Z M104.657182,19.6868177 C104.850764,19.691545 105.049979,19.7009081 105.226181,19.7812159 C105.716313,20.0046033 105.820334,20.6450743 105.836931,21.1834567 C105.852033,21.6733322 105.849198,22.1696165 105.730142,22.6450446 C105.611087,23.1204726 105.364818,23.5785194 104.971019,23.8702861 C104.794011,24.0014313 104.588706,24.0970065 104.371435,24.1333928 C104.03569,24.1896199 103.692081,24.1033587 103.373036,23.9846318 C102.947807,23.8263906 102.544601,23.609097 102.178608,23.3409384 C101.999809,23.2099353 101.815181,23.0384189 101.809417,22.8168397 C101.796125,22.3058884 101.853336,21.7931512 101.978923,21.2976961 C102.059188,20.9810391 102.170836,20.6648111 102.373969,20.4089775 C102.88929,19.7599646 103.828711,19.6665861 104.657182,19.6868177 Z M103.546068,20.1286667 C103.346703,20.1685323 103.143018,20.2368159 103.003114,20.3843383 C102.926881,20.4647234 102.874124,20.5639853 102.822316,20.6619095 C102.693114,20.9061152 102.563912,21.1503208 102.43471,21.3945264 C102.36654,21.5233752 102.297893,21.6533909 102.257804,21.793541 C102.137901,22.2127214 102.29636,22.6782187 102.589072,23.0013423 C102.881784,23.324466 103.291265,23.5210387 103.710329,23.6413474 C104.371989,23.8313026 105.075792,23.3194002 105.326499,22.6782899 C105.577206,22.0371796 105.484478,21.3170886 105.34663,20.642645 C105.293704,20.383698 105.017044,20.2390567 104.761972,20.1698251 C104.36709,20.0626467 103.947294,20.0484366 103.546068,20.1286667 Z M104.58435,20.9369384 C104.964574,21.0349612 105.226379,21.4197932 105.259302,21.8110663 C105.292224,22.2023394 105.130334,22.5894823 104.895919,22.9044872 C104.808681,23.0217166 104.708243,23.1337073 104.579197,23.2022664 C104.326007,23.3367809 104.004219,23.2766832 103.76289,23.1218949 C103.52156,22.9671066 103.344889,22.7316907 103.179497,22.4975011 C103.035073,22.2930015 102.888436,22.0435642 102.969946,21.806848 C103.017982,21.6673443 103.136435,21.5658762 103.249851,21.4715064 C103.633251,21.1524913 104.101378,20.8124265 104.58435,20.9369384 Z M81.673973,20.5821883 C81.589494,20.5726869 81.5088161,20.6174133 81.43953,20.666672 C81.1772109,20.8531666 80.9861549,21.1210625 80.8001999,21.3837641 L80.293647,22.09938 L80.293647,22.09938 C80.1837815,22.2545889 80.068889,22.426598 80.0816433,22.6163282 C80.0988026,22.8715875 80.3638835,23.0626865 80.6196183,23.0555124 C80.8753532,23.0483382 81.1056526,22.8828234 81.2550754,22.6751587 C81.4044981,22.4674941 81.4864783,22.2201501 81.5663178,21.9770917 L81.8299788,21.1744196 L81.8299788,21.1744196 C81.9034825,20.95065 81.9080299,20.608513 81.673973,20.5821883 Z M104.07702,21.4527595 C103.823496,21.5150367 103.611521,21.7235915 103.545128,21.9760692 C103.482064,22.2158894 103.553673,22.4891483 103.734199,22.6591519 C103.854677,22.7726074 104.024496,22.8387172 104.188157,22.8141799 C104.418733,22.7796104 104.592947,22.5765006 104.67359,22.357738 C104.754233,22.1389755 104.761823,21.9014048 104.790841,21.6700646 C104.615023,21.4770849 104.330544,21.3904823 104.07702,21.4527595 Z M9.94449845,16.0963498 C9.38952354,16.4900162 9.16192002,17.2254409 9.20361439,17.9045815 C9.24530868,18.583722 9.51375829,19.2256061 9.77853645,19.8523938 C9.80867506,19.9237386 9.85975244,20.0081373 9.9366611,19.9990011 C10.3041539,19.6741486 10.341618,19.1238255 10.3526654,18.6334605 C10.358368,18.3803355 10.3640707,18.1272105 10.3697734,17.8740856 C10.3827123,17.2997612 10.3945622,16.7159813 10.2437699,16.161655 C10.234056,16.1259457 10.2226624,16.088677 10.1960209,16.0629916 C10.1297376,15.9990872 10.0195958,16.0430804 9.94449845,16.0963498 Z M15.1918185,10.6439923 C14.8301636,10.8146056 14.4933939,11.0378601 14.1954205,11.304534 C14.0747526,11.4125268 13.9534885,11.5415073 13.9379799,11.7026987 C13.9237175,11.8509371 14.0026018,11.9908495 14.0838127,12.1156805 C14.4592587,12.6927859 14.9467588,13.1966964 15.5111222,13.5910364 C15.6399627,13.6810617 15.7836092,13.7686516 15.9407219,13.7641762 C16.0978346,13.7597008 16.2594921,13.6209021 16.2286749,13.4667764 C16.0549183,12.5977674 15.8811617,11.7287583 15.7074052,10.8597493 C15.6904993,10.7751982 15.6700573,10.6842974 15.6052735,10.6273961 C15.4952509,10.5307606 15.3242565,10.5815139 15.1918185,10.6439923 Z M98.4398702,8.13171836 C98.0297517,8.94747489 98.094642,9.91094501 98.1692062,10.8209428 C98.2048507,11.2559556 98.2404952,11.6909684 98.2761397,12.1259812 C98.2878998,12.2695044 98.3659379,12.4631729 98.5043468,12.4234212 C98.6654112,11.9727717 99.0994585,11.6699947 99.2976195,11.2343817 C99.6107245,10.5460896 99.2631984,9.75284051 98.9207915,9.07864596 C98.7604844,8.7630034 98.6001773,8.44736091 98.4398702,8.13171836 Z M93.7177574,1.81260007 C93.2986569,2.18208741 93.4488027,2.87526337 93.2038233,3.37740994 C93.1095437,3.57066003 92.9542189,3.73953559 92.9172632,3.95135747 C92.8803074,4.16317935 93.0596421,4.42891351 93.2629199,4.35882524 C93.5154217,4.2717648 93.7865019,4.40315673 94.0530365,4.42036109 C94.5896272,4.45499713 95.0348523,4.03461692 95.4056079,3.64516936 C95.022775,2.8966181 94.4323608,2.2555809 93.7177574,1.81260007 Z" id="Combined-Shape" fill="#00160A"></path>
                </g>
            </g>
        </g>
    </g>
</svg>